<?xml version="1.0" encoding="UTF-8"?>
<svg version="1.1" viewBox="0 0 1404 1404" width="1280" height="1280" xmlns="http://www.w3.org/2000/svg">
<path transform="translate(0)" d="m0 0h1404v1404h-1404z" fill="#FBF7EB"/>
<path transform="translate(1042,229)" d="m0 0 9 1 9 2 1 3-24 10-19 9-25 11-28 13-12 7-2 3 20-2 7-3 41-18 16-7 12-6 25-11h14l5 2-4 4-16 7-34 16-23 11-21 10-1 1 9 1 17-2 18-6 35-17 33-15 2-1h7l24 8v2l-10 5-23 11-38 18-29 14-28 13-26 12-19 8-7-1-14-4-37-7-33-3h-18l4 4 10 6 27 3 30 5 20 6 12 6 8 7 5 10 2 8v5l-13 6-14 7-13 11-11 10-1 2 9-4 25-11 28-13 34-15 15-7 31-15 29-13 25-11 15-8 8-5 27-14 25-12 10-4h3l4 7 5 4 6 3v2l-24 13-23 12-18 10-16 8-41 21-22 11-19 10-27 13-16 8-53 26-35 17-25 12-38 18-14 6-16 8-35 17-24 11-32 15-16 7v15l16-8 26-12 16-8 27-13 23-11 21-10 3 1-9 15-1 2 19-8 38-18 41-19 29-14 23-11 34-16 29-14 26-12 6-1 18 1 10-4 21-11 54-27 46-22 12-6 7 6 4 6-22 12-19 10-22 12-16 8-17 9-19 10-41 21-22 12-16 9-14 7-22 12-26 14-28 15-23 13-22 12-17 10-13 8-3 1v2l57-26 33-16 23-11 58-29 14-8 23-11 27-14 16-8 6-4 66-33 19-10 26-14h3v18l-1 8-27 14-22 12-42 22-13 7-19 10-28 14-15 9-7 3-19 10-27 14-19 10-25 13-19 10-20 10-19 10-35 18-8 4v1l24 3 3-6 12-3 25-2 3-1 26-1v3l36 1 52 5 29 4 14 2 2 1 13 2v2l4 1 11 3h8l10-6 2-2h15l10 2-2 4-9 7v2l16-5 6-2 13 7 9 7v2l3 1 5 25 2 14 5 20 2 14v20l-4 34-8 49-8 33-7 21-11 23-8 11-10 10-11 9-14 11-13 11-14 11-11 9-16 13-25 20-14 11-16 13-14 11-15 12-11 9-12 9-12 10-13 10-14 11-16 13-10 8-14 11-16 13-9 7-14 11-18 14-15 12-9 7-13 10-10 8-5 2-31-1-114-6-86-5-15-2-30-13-36-16-39-17-24-11-26-12-34-16-31-16-18-11-19-13-14-10-11-11-7-8-11-13-2-4 2-14 4-16 9-22 7-14 1-4 3-43 5-30 6-25 1-2-17 8-23 11-82 41-4-1-13-16v-4l104-52 23-11 20-9h2l1-9 2-5-6 1-17 7-18 8-100 50-19 9-4-2-9-14-5-7v-3l19-9 19-10 80-40h2v-2l-10-2-6-1-34 16-28 13-21 10-26 13-4-1-16-31-8-15v-4l23-10 50-22h2v-2l-5-1-31-12-16-7-7-6-12-12-7-8-8-8-1-2 1-14 6-8 9-10 3-4v-8l-4-20-2-13v-19l4-20 8-20 10-19 10-14 9-12 14-15 7-7 11-9 14-10 14-8 14-7 24-9 28-7 30-5 32-3 46-2 6-4 15-14 11-9 11-10 11-9 12-11 11-9 13-11 11-9 18-14 18-11 16-7 24-6 26-4 23-2h79l26 2 22 3 29 6 23 7 24 10 13 6 5-2 32-15 35-15 26-11 41-18 35-15 25-11z" fill="#0D1B32"/>
<path transform="translate(1021,624)" d="m0 0h13l21 3h13l-4-3h17l42 5 2 1 36 3 27 3 3 2-25 11-28 13-16 8-23 12-16 8v1l23 5 12 3 7 3-2 2h-10l-37-6-8-2-1 5-9 6-14 8-22 13-23 12-6 4h-16v3l5 2 6 4v2l5 2 8 6v2l-16 9-17 8-9 6-7 6-9 12h-2v3h-2l-2 5-10 15-7 8-11 12-4 5-3 5-4 8-1 3h-2l-6 18h-2l-2 10-5 12-3 6-20 8-30 13-27 11-30 11-26 9-9 4-7 3-17 8-16 8-17 8-9 5-2-1 17-12 16-11 22-15 14-10 27-18 18-13 13-9 18-13 19-14 12-9 4-6v-5l-2-3h-15l-24 5-26 8-19 7-18 8-15 9-10 9-8 7-11 13-5 6-3 5-4 5-3 5-4 7h-2l-2 5-3 4-1 4-2 1-1 3h-2l-1 4-3 5-1 4-3 3-3 7-8 15 41-1 38-4 30-5 24-6 12-5 13-4 26-12 17-8 16-8h3l-2 6-10 7h-2v2h-3v2l-9 6-11 7-7 4-5 3-13 8-25 14-23 13-11 6h-2l3 6 13 16 8 10 9 11 14 17 12 14 4 6 6-1 23-14 25-16 41-28 14-10 17-12 19-13 23-16 19-13 23-16 20-13 17-11 22-14 15-10 10-6 4-1-5 5-13 10-30 23h-2v2l-6 4-13 10-54 39-17 12-20 14-18 13-19 13-20 14-35 24-27 18-14 10-5-1-11-14-13-16-13-17-20-25-11-14-5-6-81-1-62-2-26-2v12l2 10 4 10v3h2l5 15 12 25 4 6 7 6 6 8 1 2 3 1v2h6l1 1 31 3 107 7 19 2 6 2 9 1v1h-23l-40-2-32-1-52-3-47-3-13-2-25-13-13-8-33-14-24-10-35-15-19-8-10-4-2-1v-2l-5-2-9-5 1-4 7-3 5 1 5 2v2l9 1 1 3 12 3 29 13 22 9 13 6 23 9 10 4 13 9 17 10 4 1-1-4h-2l-3-6v-5h-2l-7-20-13-31v-2h-2l-5-13-3-7-5-2v-2l-6-1-39-15-23-9-7-2v-2l-5-1-31-13-30-13-8-4-5-2-1-5 5-1 15 7 29 12 20 8 10 3v2h6l2 1v2l6 1 35 13 11 3 1-6 10-14h2v-5l9-10 9-11 10-10 7-8 3-4h2l2-4 15-14 11-10 14-11 10-8 27-15 12-7 16-8 8-5h3l-1-1-7 3-18 7-18 5-27 6h-5l2-4 5-6 8-7 5-2 18-4 14-5 25-12 25-13 22-12 32-17 26-13-4-1-24-3-32-6h-8l-19 9-23 14-17 11-35 24-14 11-28 24-24 22-7 8-9 9-1 2h-2l-2 4-7 7-10 13-5 5-14 15-8 10-1 2h-2v2l-8 6-23-8-42-16-21-9-11-5-7-3-3-2 2-4 7-6 1 2-1 2 5 2 9 4h6l2-5 1-2h2l2-5 18-18 10-7 21-21 8-7 8-8 8-7 10-9 8-7 10-9 11-9 11-10 17-13 6-5 4 1 22 7 24 6 7 1h12l11-4 11-6 22-14 19-12 10-6h2v-2l-48 23-12 4-10-1-30-7-23-6-2-1 2-4 9-8 1-2-13 4-10 6-8 7-2 10-4 3-7 3-11 9-7 6h-2v2l-10 8-7 3-3 3-4 1-1 5h-2l-2 4-22 22-8 7-8 8-6 4-20 18-6 3h-3l-1-7h-2l2-4 4-7 3-1 1 3-1 2 2 2-1 3 6-2 3-5-7-1 6-7 6-12h2l1-4 4-1 1-4 9-10 11-10 11-9 12-11 11-9 10-9 10-8h2l1-3 14-11 17-14 16-12 5-3 1-2h-8l-7-4-6-5-4-6-1-4-4 1-18 13-11 8-8 6-33 18-33 22-15 12-17 12-14 10-4 1 2-6 8-8 7-6 12-12 7-8 9-9 7-8 9-9 8-10 5-4 1-2-32 16-10 6-9 6-13 12-10 8-4 2 2-4 3-4v-8h-2v-3l-4-2v-2l-4-2-2-4 4-3 24-8 9-6 10-8 14-9 21-11 19-7 30-8 49-13 7-1v13l3 5v2l5 2 3 1v2l7 1 11 5 18 6 26 7 38 9 42 8 26 4 28 3 18 1h25l27-3 25-5h6l-4 4-22 14-39 26-10 8-2 1 5-1 17-8 20-8 30-13 29-13 30-14 23-11 22-12 17-9 24-14 19-11 17-11-3-7-5-10-6-11v-3l18 2 18 4 11 4h8l21-10h2v-2h-8l-63-14-32-6-15-3v-4z" fill="#FBF7EB"/>
<path transform="translate(829,375)" d="m0 0 7 1 8 6 2 4 1 11-3 14-8 7-27 14-27 13-28 13-31 14-13 6-4 1-14-8-15-10-6-2 4 7 9 11 7 10 3 4v4l-5-1-13-6-14-3h-14l-12 2-12 4-18 10-16 12-14 12-7 7-8 7-10 11-7 8-14 15-9 11-7 7-7 8-8 8-8 7-12 10-15 9-10 5-17 5-13 2-18 1h-28l-35-1-20-1 7 8 9 10 7 8 15 16 12 11 10 6 10 3 12 1v2h-2v2l-7 4-12 9-14 12-4 4-12-13-7-8-8-9-3-2-24-1-19-3-34-8-47-14-36-12-20-7-7 1-14 7-7 2 1-5 17-14 4-4 1-7v-9h3l4 6 5 3 13 4 10 2 19 5 21 6 19 4 13 3 11 3 10 2 29 5 26 3h8l-7-8-9-10-13-14-8-10-7-7-16-5-19-4-18-5-8-2v-2l-10-1-8-2 2-5 12-13 13 2 32 6 11 2 27 4h13l4-3v-4l-80-14-9-1-2-1 1-4 42-42 8-7 14-12 10-9 4-4h2l-1 4-6 9-5 6h-2l-2 4-7 6-8 7-3 1-1 3-8 7-16 16-1 2 28 4 5 1h10l13-12 7-7 8-7 10-9 11-9 12-10 14-10 15-10 20-12 32-17 4 1-5 4-19 14-17 12-13 10-11 9-13 11-13 12-10 9-4 4h-2l-2 4h-2l-2 4-8 8-7 6 8-1 10-8 13-12 11-9 12-11 14-11 11-9 34-24 22-13 23-12 19-9 14-7 15-6 4-1h22l-3 3-19 8-29 13-15 8-33 18-5 2v2l6-1 40-18 12-5 20-8 26-8 34-8 25-4 12-1 34-1 37-14 32-14 37-16 27-12 33-15z" fill="#E53958"/>
<path transform="translate(765,845)" d="m0 0 2 1-5 5-15 14-44 44-15 20-12 20-7 14-11 24-2 9v3l-8 15 41-1 38-4 30-5 24-6 12-5 13-4 26-12 17-8 16-8h3l-2 6-10 7h-2v2h-3v2l-9 6-11 7-7 4-5 3-13 8-25 14-23 13-11 6h-2l3 6 13 16 8 10 9 11 14 17 12 14 4 6 6-1 23-14 25-16 41-28 14-10 17-12 19-13 23-16 19-13 23-16 20-13 17-11 22-14 15-10 10-6 4-1-5 5-13 10-30 23h-2v2l-6 4-13 10-54 39-17 12-20 14-18 13-19 13-20 14-35 24-27 18-14 10-5-1-11-14-13-16-13-17-20-25-11-14-5-6-81-1-62-2-26-2v12l2 10 4 10v3h2l5 15 12 25 4 6 7 6 6 8 1 2 3 1v2h6l1 1 31 3 107 7 19 2 6 2 9 1v1h-23l-40-2-32-1-52-3-47-3-13-2-25-13-13-8-33-14-24-10-35-15-19-8-10-4-2-1v-2l-5-2-9-5 1-4 7-3 5 1 5 2v2l9 1 1 3 12 3 29 13 22 9 13 6 23 9 10 4 13 9 17 10 4 1-1-4h-2l-3-6v-5h-2l-7-20-13-31v-2h-2l-5-13-3-7-5-2v-2l-6-1-39-15-23-9-7-2v-2l-5-1-31-13-30-13-8-4-5-2-1-5 5-1 15 7 29 12 20 8 10 3v2h6l2 1v2l6 1 35 13 11 3 1-6 10-14h2v-5l9 4h7l34-12 41-13 10-5 8-9 11-14 9-11 15-16 16-17 20-20 11-9 8-7 19-14z" fill="#32C8E3"/>
<path transform="translate(829,375)" d="m0 0 7 1 5 4v2l-29 12-27 12-60 26-29 13-22 9-10 5-25 11-21 10-14 8-17 12-13 10-14 12-11 9-20 20-2 3h-2l-2 4-43 43-11 9-15 10-15 7-19 5-10 2-11 1h-14l-40-3-7-1 2-5 7-10 5-5 9-10 11-14 27-30 10-10 8-7 13-11 18-13 18-11 27-14 19-8 31-9 16-2h42l17-7 30-13 13-5 37-14 32-14 37-16 27-12 33-15z" fill="#FAF7EB"/>
<path transform="translate(586,694)" d="m0 0h3l-1 5-1-3-52 14-27 7-21 7-23 11-11 7-11 8-10 8-9 4-21 7v4l5 5 3 2v3h2l1 8-5 7 11-8 10-10 10-8 11-6 10-6 17-8 6-3h2l-2 4-6 5-8 10-8 8-3 4h-2l-2 4-13 13-7 8-4 4h-2l-2 4h-2l-2 4-8 7-3 6 6-3 11-8 18-13 14-11 27-18 17-10 18-10h3l-5 4h-2l-1 3-7 5-5 5-3 1-2 4-14 12-10 9-7 6-14 14-16 14-9 7-5 10-7 18-6 8h-2l-2 4-13 14-7 8-12 14-6 8-4-1-10-8-13-12-14-14-2-4v-8l4-21 9-32 7-19 8-16 9-15 9-12 9-10 10-10 13-10 16-10 13-6 13-5 13-4 25-5 26-4 27-3 15-1z" fill="#31C7E2"/>
<path transform="translate(830,864)" d="m0 0h15l3 4-1 7-5 6-38 28-10 7-17 12-14 10-31 21-19 13-13 9-32 22 19-9 44-22 12-4 9-4 21-7 24-9h8v3l3 1 3 10 4 1 2 5v7l9 2-1 3-6 2v2l-18 8-11 3-12 5-26 6-32 5-31 3-42 1 13-26h2l1-6 4-7h2l1-4h2l1-5 5-8h2l1-4 4-5 4-7 3-3 3-5 11-13 7-8 10-9 13-9 16-8 17-7 33-11 22-5z" fill="#0D1C33"/>
<path transform="translate(826,635)" d="m0 0h7l50 8 53 7 16 2 1 1v13l-3 44-1 9-8 3-15 4-21 4-15 2-14 1h-27l-25-2-40-5-11-2 1-5 11-18 12-20 11-18 15-24z" fill="#FBF7EB"/>
<path transform="translate(1220,629)" d="m0 0 5 1 6 12 1 4-15 9-7 7-9 14-9 16-15 29-12 19-9 13-9 11-4 6-10 9-26 15-18 11-3 1 1-6 7-19 10-32 2-9-1-9-7-10-4-3-9 2-8 5-8 4-11 6-9 5-11 6-7 4-8 5-9 1-10-5-13-5-12-2v-1h14l17-10 21-11 35-21 2-5 8 1 37 6h10l-2-2-9-3-21-4-9-3 3-3 16-8 31-16 23-11 29-13 5-2-1-2 14-2z" fill="#0F7592"/>
<path transform="translate(1042,229)" d="m0 0 9 1 9 2 1 3-24 10-19 9-25 11-28 13-12 7-2 3 20-2 7-3 41-18 16-7 12-6 25-11h14l5 2-4 4-16 7-34 16-23 11-21 10-1 1 9 1 17-2 18-6 35-17 33-15 2-1h7l24 8v2l-10 5-23 11-38 18-29 14-28 13-26 12-19 8-7-1-14-4-37-7-33-3h-18l-1 2-10-7-5-4 8-5 37-17 52-22 41-18 35-15 25-11z" fill="#E63958"/>
<path transform="translate(534,447)" d="m0 0h22l-3 3-19 8-29 13-15 8-33 18-21 14-17 12-16 13-15 14-26 26-7 8-9 10-4 5-6 4-5 9-7 8-4 6-16-1-32-5-45-8-8-2 2-5 12-13 13 2 32 6 11 2 27 4h13l4-3v-4l-80-14-9-1-2-1 1-4 42-42 8-7 14-12 10-9 4-4h2l-1 4-6 9-5 6h-2l-2 4-7 6-8 7-3 1-1 3-8 7-16 16-1 2 28 4 5 1h10l13-12 7-7 8-7 10-9 11-9 12-10 14-10 15-10 20-12 32-17 4 1-5 4-19 14-17 12-13 10-11 9-13 11-13 12-10 9-4 4h-2l-2 4h-2l-2 4-8 8-7 6 8-1 10-8 13-12 11-9 12-11 14-11 11-9 34-24 22-13 23-12 19-9 14-7 15-6z" fill="#FAF7EB"/>
<path transform="translate(1271,438)" d="m0 0h3l-1 8-7 8-4 2-2 4-8 7-13 13-8 7-32 30-8 7-7 7-8 7-14 12-17 16-14 11-9 7-1 2-40-5-43-4-34-1v-1l15-1 54-27 22-12 26-14 27-14 16-9 24-13 26-14 24-14 25-14z" fill="#32C8E3"/>
<path transform="translate(730,784)" d="m0 0h8l37 7 23 2v3l-38 19-22 12-32 17-27 14-21 9-16 4-9 2-6 4-2 3h-2l-2 4-5 6 20-4 16-4 19-6 15-6 6-2v2l-11 6-19 10-22 12-17 10-9 1-37 2-18 2 2-4 7-7 6-7 8-7 8-8 11-9 11-10 11-9 17-13 12-8 13-9 20-13 21-13 19-10z" fill="#0D1B32"/>
<path transform="translate(841,380)" d="m0 0 4 4 2 8-1 11-3 9-7 6-27 14-27 13-28 13-31 14-13 6-4 1-14-8-15-10-6-2 4 7 9 11 7 10 3 4v4l-5-1-13-6-14-3h-14l-12 2-12 4-13 7h-7l-1 3-5 2v-3l-3 3h-3l2-4 8-7 1-2-2-1 13-8 23-11 24-11 12-5 8-4 26-11 38-17 33-14 29-13 29-12 5-1z" fill="#F43956"/>
<path transform="translate(151,634)" d="m0 0h3l4 6 5 3 13 4 10 2 19 5 21 6 19 4 13 3 11 3 10 2 29 5 26 3h8l-7-8-5-8-7-7-3-4 1-4h-2l1-2 2-1 5 5 1 3 5 2 16 17 11 12 7 7 12 9 9 4 17 2v2h-2v2l-7 4-12 9-14 12-4 4-12-13-7-8-8-9-3-2-24-1-19-3-34-8-47-14-36-12-20-7-7 1-14 7-7 2 1-5 17-14 4-4 1-7z" fill="#F33956"/>
<path transform="translate(583,696)" d="m0 0h4l-1 16-9 6-12 9-10 8-20 14-9 7-33 18-33 22-15 12-17 12-14 10-4 1 2-6 8-8 7-6 12-12 7-8 9-9 7-8 9-9 8-10 5-4 1-2-32 16-10 6-9 6-13 12-10 8-4 2 2-4 3-4v-8h-2v-3l-4-2v-2l-4-2-2-4 4-3 24-8 9-6 10-8 14-9 21-11 19-7 30-8 49-13z" fill="#FAF7EB"/>
<path transform="translate(500,445)" d="m0 0h20l10 3-3 2-20 9-25 12-20 10-20 12-15 10-18 13-16 12-13 11-11 9-12 11-8 7-10 9-7 5-9 1 6-7 8-7 4-5 8-7 9-9 8-7 12-11 11-9 15-12 17-12 19-14 11-8-5 1-34 18-22 14-12 8-16 12-14 12-10 9-8 7-12 11-7 7-5 4h-10l-31-5-2-1 2-5 10-9 11-11 8-7 7-6 5-3v2l10-4 34-18 38-19 39-17 26-11 27-10z" fill="#F43956"/>
<path transform="translate(1104,925)" d="m0 0 2 1-15 12-11 8-18 14-4 3h-2v2l-6 4-13 10-54 39-17 12-20 14-18 13-19 13-20 14-35 24-27 18-14 10-5-1-11-14-13-16-13-17-20-25-11-14-5-6-46-1-41-2 1-3 8-1 28-2 35-6 29-8 25-8 22-9 9-4 16-8 13-6h3l-1 3-9 5-5 4-6 3-19 11-25 14-21 12-6 2 3 6 13 16 8 10 9 11 14 17 12 14 4 6 6-1 23-14 25-16 41-28 14-10 17-12 19-13 23-16 19-13 23-16 20-13 17-11 22-14 15-10 10-6z" fill="#F7F6EB"/>
<path transform="translate(976,745)" d="m0 0 1 2 5 2 6 4v2l5 2 8 6v2l-16 9-17 8-9 6-7 6-9 12h-2v3h-2l-2 5-10 15-7 8-8 3-20 6-25 4-17 1-1-4 5-16 10-14 14-15 14-12 14-9 14-8 12-6 19-10 16-7z" fill="#32C8E3"/>
<path transform="translate(1175,644)" d="m0 0 2 1-1 1-2 17-5 26-8 32-12 36-6 10-5 6-10 7-22 13h-3l1-7 6-17 9-36 6-29-2-1-2-2-9-3-21-4-9-3 3-3 16-8 31-16 23-11z" fill="#32C8E3"/>
<path transform="translate(1270,408)" d="m0 0h3v17l-19 10-13 8-29 16-26 14-23 13-32 17-22 12-26 14-22 12-26 14-19 10-12 7-2 3v-3l-26 2-3 1-19 1v-1l8-2 12-6 8-5 29-15 22-12 26-14 28-14 23-13 24-12 22-12 32-17 19-11 14-7 22-12 26-14z" fill="#32C8E3"/>
<path transform="translate(586,709)" d="m0 0 4 5v2l5 2 3 1v2l7 1 11 5 18 6 11 3-4 3-16 11-16 12-8 7-1-2-13 4-10 6-8 7-2 10-4 3-7 3-11 9-7 6h-2v2l-10 8-7 3-3 3-4 1-1 5h-2l-2 4-22 22-8 7-8 8-6 4-20 18-6 3h-3l-1-7h-2l2-4 4-7 3-1 1 3-1 2 2 2-1 3 6-2 3-5-7-1 6-7 6-12h2l1-4 4-1 1-4 9-10 11-10 11-9 12-11 11-9 10-9 10-8h2l1-3 14-11 17-14 16-12 5-3 1-2h-8l-7-4-6-5-4-6-1-4-2-2 17-13 4-1z" fill="#32C7E2"/>
<path transform="translate(596,767)" d="m0 0h4l-2 4-9 8-1 2 18 4 28 7 14 3 9-1 21-9 32-16h3v2l-12 7-38 24-14 8-11 4h-12l-15-3-26-7-12-4-4-1-16 13-10 8-10 9-11 9-14 13-11 9-7 7-8 7-8 8-8 7-17 17-8 5h-2l-2 4-3 3h-2l-2 4-8 9-1 2h-2l-2 5-1 2-6 1-9-4-5-3-1-5 8-10 2-3h2l2-4 9-11 10-11 7-13 8-10 7-10 7 1 5 2v2l-4 2-1 3h-2l-1 4-6 11-3 4h6l-5 8h-5l-1-4v-3l-1-2-3 3-3 7v1l1 7 10-5 10-9 5-6 5-3 8-6 11-11 8-7 4-5 8-7 6-7h2l1-5 6-2 1-3 7-3 8-7h2v-2l10-8 13-10 7-3 2-10 10-9 11-6zm-202 163m-1 1m-2 1 2 1-6 7-1-3z" fill="#25B9D6"/>
<path transform="translate(443,908)" d="m0 0 2 1-1 3 36 12 41 13 8 3h5l-6 7-15 16-8 10-1 2h-2v2l-8 6-23-8-42-16-21-9-11-5-7-3-3-2 2-4 7-6 1 2-1 2 5 2 9 4h6l2-5 1-2h2l2-5 18-18z" fill="#32C8E3"/>
<path transform="translate(776,585)" d="m0 0h27l44 4 61 8 51 8 2 1v2l-18 10-10 9-1 1h-11l-102-15-43-7-34-6-9-1-2-2 7-4 24-6z" fill="#FBF7EB"/>
<path transform="translate(1271,365)" d="m0 0h3v18l-1 8-27 14-22 12-42 22-13 7-19 10-28 14-15 9-5-2-6 3-20-1-1-2h3l2-5 1-2h5v-2h2v-2l-2-1 4-4-4 3-10 4-2-1 14-8 23-11 27-14 16-8 6-4 66-33 19-10z" fill="#0C6B88"/>
<path transform="translate(564,727)" d="m0 0 4 1 3 7 4 5 7 5 11 2-2 4-11 7-11 9-16 13-10 8-7 6-11 9-10 9-11 9-12 11-11 9-13 12-4 4 1-22 2-22 3-6-2-1 13-12 15-13 5-4 10-10 6-4 4-4 10-8 18-13z" fill="#0C1B32"/>
<path transform="translate(852,349)" d="m0 0h3l5 5 11 5 9 1 12-1h12l6 7 7 11-1 5-13 12-8 11-6 13-7 19-2 7-8 5-23 11-26 12-16 8-30 14-18 8-3-1 19-12 21-12 22-14 23-14 11-7 2-15 6-23v-8l-4-10-7-9-10-5v-3l5-2 6-11z" fill="#F33956"/>
<path transform="translate(1185,264)" d="m0 0h3l-1 19-21 10-17 9-23 11-40 20-23 11-21 10-17 9-23 11-13 6h-2l-3-9-5-9 1-3 32-15 28-13 36-17 20-9 35-17 26-12 15-7z" fill="#F43956"/>
<path transform="translate(577,492)" d="m0 0 2 1-10 8-13 10-13 11-3 1-3-9-3-1h-17l-16 4-12 5-17 9-19 13-15 13-10 9-7 7-7 8-9 11-4 7v9l3 3 3 1h13l19-3 20-7 4-1v2l-13 9-17 8-14 4-6 1h-20l-8-3-6-5-1-2v-8l4-10 10-14 11-13 8-8 5-6 8-7 13-12 12-9 15-10 12-7 24-11 16-5 12-2h15l12 3 4 2h6z" fill="#0D1D34"/>
<path transform="translate(614,908)" d="m0 0h8l-5 5-13 11-11 9-11 11-7 6-1 2h-2l-2 4-16 17-9 10-8 10-2 2-1 5-2-1 1-3-7-1-27-10-4-3 5-5h2v-2h2l2-5 14-15 7-8 5-5 7-9 9-10 3-4h2l2-4 4-3 32-3z" fill="#0B6885"/>
<path transform="translate(638,339)" d="m0 0h11l24 2-1 5-13 29-13 27-9 19-3 5-7 2-32 4-16 1-2-1 1-4 10-15 9-14 21-31 8-12 11-16z" fill="#FBF7EB"/>
<path transform="translate(586,694)" d="m0 0h3l-1 5-1-3-52 14-27 7-21 7-23 11-11 7-11 8-10 8-9 4-21 7-3 2-2-1v-2h-5l-5-3h-3l4-5 10-14 4-4h2l1-3 11-9 1-5 17-8 13-5 13-4 25-5 26-4 27-3 15-1z" fill="#32C8E3"/>
<path transform="translate(702,300)" d="m0 0h17l19 2 36 7 24 7 20 8 11 6 9 7 1 1v6l-6 8-12 10-4 1v-14l-3-13-3-3-11-4-15-3-8-1h-26l-33 2h-37l-53-3-4-1v-2l18-6 11-5 17-5 20-4z" fill="#E43958"/>
<path transform="translate(1042,229)" d="m0 0 9 1 9 2 1 3-24 10-19 9-25 11-28 13-12 7-2 3h3v2l-28 13-31 14-16 7-8 3-16 1-1 2-10-7-5-4 8-5 37-17 52-22 41-18 35-15 25-11z" fill="#F43956"/>
<path transform="translate(903,855)" d="m0 0v3l-4 6-2 6h-2l-6 18h-2l-2 10-5 12-3 6-20 8-30 13-27 11-30 11-26 9-4 2-3-1 9-6 10-8 25-17 24-16 57-39 15-11 14-9 6-4 5-3z" fill="#32C7E2"/>
<path transform="translate(520,524)" d="m0 0h9l3 4-1 6-9 11-8 8-7 8-14 14-8 7-14 10-15 7-18 6-9 2h-15l-2-2 1-5 11-13 11-10 11-9 17-13 15-10 13-8 19-10z" fill="#0D1B32"/>
<path transform="translate(417,1055)" d="m0 0 5 1 5 2v2l9 1 1 3 12 3 29 13 22 9 13 6 23 9 10 4 13 9 17 10 6 3 7 5 15 2 14 1 1 1 31 3 107 7 19 2 6 2 9 1v1h-23l-40-2-32-1-52-3-47-3-13-2-25-13-13-8-33-14-24-10-35-15-19-8-10-4-2-1v-2l-5-2-9-5 1-4z" fill="#F8F7EB"/>
<path transform="translate(1106,252)" d="m0 0h7l24 8v2l-10 5-23 11-38 18-29 14-28 13-26 12-19 8-7-1-14-4 4-3 41-19 29-14 17-9 4-3h2v-2l-7 1-6 2h-5l3-2 15-6 31-15 33-15z" fill="#F43956"/>
<path transform="translate(321,646)" d="m0 0 7 6v2l5 2 16 17 11 12 7 7 12 9 9 4 17 2v2h-2v2l-7 4-12 9-14 12-4 4-12-13-7-8-8-9-8-7-7-7-8-7-5-3-41-9-43-11-44-13-4-2v-2h7l19 5 21 6 19 4 13 3 11 3 10 2 29 5 26 3h8l-7-8-5-8-7-7-3-4 1-4h-2l1-2z" fill="#F23A56"/>
<path transform="translate(383,968)" d="m0 0 5 1 17 7 11 5 35 14 10 3v2h6l2 1v2l6 1 35 13 11 3 1-4v3l6 1 25 9 15 7 6 1v1h-8v12l2 10 4 10v3h2l5 15 12 25 4 6 7 6 6 8 1 2 3 1v2l-16-1-9-2-6-5-2-6h-2l-3-6v-5h-2l-7-20-13-31v-2h-2l-5-13-3-7-5-2v-2l-6-1-39-15-23-9-7-2v-2l-5-1-31-13-30-13-8-4-5-2-1-5z" fill="#30C5E0"/>
<path transform="translate(387,764)" d="m0 0 5 3 5 1v2l4 2 5 4 4 4v3h2l1 8-9 10-7 7-7 8-14 15-3 5h-2l-2 4-4 5-9 11-11 13-7 9-4 2v-7l6-24 9-26 10-21 11-18 10-14z" fill="#0C1E35"/>
<path transform="translate(1271,484)" d="m0 0h2v21l-9 7-40 30-36 26-14 10-17 12-4 2-1 2-4-2v-2l-13-1-2-1-10-1v-1l9-2 12-10 18-13 33-22 20-14 18-13 17-12 16-12z" fill="#32C8E3"/>
<path transform="translate(500,445)" d="m0 0h20l10 3-3 2-20 9-25 12-20 10-20 12-15 10-18 13-16 12-13 11-11 9-12 11-8 7-10 9-7 5-9 1 6-7 8-7 4-5 8-7 9-9 8-7 12-11 11-9 15-12 17-12 19-14 11-8-5 1-34 18-18 11h-3l1-3 6-1v-2l5-5 7-3 5-4 5-1v-2l8-4h2l1-3h3v-2l2-1v-3l23-9 29-11z" fill="#F43956"/>
<path transform="translate(293,437)" d="m0 0 2 1-24 12-10 7-14 10-5 4-3 6 7-2 14-8 15-8 28-14 8-3 3 1-8 5-12 7-9 5-14 9-16 11-14 10-13 10-13 12-13 13-7 8-9 9-7 8-12 14-3 2-9-1 1-5 11-14 9-11 12-13 7-8 9-10 7-7 7-8 5-7 1-20 10-6 16-7 9-3h3v-2l20-5 5-1z" fill="#E43958"/>
<path transform="translate(664,513)" d="m0 0h8l10 3 10 8 7 11 5 12 4 20 1 9v14l-3 3-4 2h-8l1-5v-15l-3-18-5-13-9-10-8-3h-10l-10 4-11 8-9 9-10 15-9 19-5 13-3 3-9 1-1-4 11-29 10-19 9-12 12-12 15-10 7-3z" fill="#E43958"/>
<path transform="translate(1253,340)" d="m0 0 5 3 7 8-3 3-29 15-18 10-19 10-12 6-15 8-19 10-6 2-1-1-15 5h-6l-6-5v-2h-10v-1l11-3 15-8 11-6 82-40 17-8z" fill="#0A5A76"/>
<path transform="translate(877,915)" d="m0 0h1l-1 9-5 20-3 18-3-1-10 6-24 11-10 5-3-1 6-3 1-2-7-1-2-1-2-10-1-2-3-1-4-10-2-1v-3h-5l3-2 45-19 23-10z" fill="#095571"/>
<path transform="translate(483,749)" d="m0 0h2l-2 4-6 5-8 10-8 8-3 4h-2l-2 4-13 13-7 8-4 4h-2l-2 4h-2l-2 4-8 7-25 25-8 7-9 9-9 6-10 3-5-1 3-5 9-9 7-8 11-10 7-8 13-14 1-2h2l2-4 4-5 3-3 2-5 8-11 9-9 10-8 11-6 10-6 17-8z" fill="#095874"/>
<path transform="translate(1220,629)" d="m0 0 5 1 6 12 1 4-15 9-7 7-9 14-9 16-5 10h-3v2h-2v-3h-7l-1 4-6 4h-4l2-12 5-23 3-16 1-12 4-4 10-4-1-2 14-2z" fill="#0F7693"/>
<path transform="translate(615,1089)" d="m0 0 11 7 9 6 8 2 9 1 53 2 11 1 12 5 29 15 3 3-1 1h-18l-64-2-20-2-10-5-9-7-10-9-10-11-3-5z" fill="#0F7390"/>
<path transform="translate(596,767)" d="m0 0h4l-2 4-9 8-1 2 18 4 28 7 14 3 9-1 21-9 32-16h3v2l-12 7-38 24-14 8-11 4h-12l-15-3-26-7-12-4-4-4-1-12 10-9 11-6z" fill="#0C1D34"/>
<path transform="translate(1180,412)" d="m0 0 3 1-1 2h-2l-2 4h-5l-1 3-7 3-4 3-5 1-1 5-4 8 13-4 12-2 5-2 1-2 5-1 3-3 9-3 5-1 1 3-16 8-14 8-6 3-19 10-28 14-15 9-5-2-6 3-20-1-1-2h3l2-5 1-2h5v-2h2v-2l-2-1 4-4-4 3-10 4-2-1 14-8 23-11 27-14 16-8 6-4 16-8z" fill="#0A5874"/>
<path transform="translate(1068,696)" d="m0 0 8 1v1h-7v2l3 1v2l5 2 8 6 5 4-1 3-9 5-22 12-9 5-11 6-7 4-8 5-9 1-10-5-13-5-12-2v-1h14l17-10 21-11 35-21z" fill="#32C7E3"/>
<path transform="translate(627,448)" d="m0 0h30l-4 3-35 15-17 7h-42l-16 2-31 9-25 11-25 13-3 1 1-4 4-7 16-8 21-9 13-6 20-7 22-7 34-8 25-4z" fill="#F43956"/>
<path transform="translate(961,606)" d="m0 0 21 3 13 2 29 3 30 5 19 3 7 1v1l-13 1 4 2-3 1h-13l-21-3h-13l-4 1v2l15 3v1l-15-1-20 1h-44l-26-3v-1l6-2 7-7 17-10 4-1z" fill="#0F7390"/>
<path transform="translate(584,911)" d="m0 0h13l1 4h-2l-1 4h-3v2h-3l-2 4-5 5-7 5h-2l1 3-5 2-1 3h-2l-2 5h-2l-2 4-5 6-6 5-5 6h-2l-2 4-7 8-5 2-5 7h-5l-5-3-10-4v-2l-8 2 5-6h2v-2h2l2-5 14-15 7-8 2-1 1 2 5-1v6l1-2 5-3 4-4 4-2v-2h2l2-4 5-4 8-8 3-2h3v-2h2l2-5 5-1v-2z" fill="#107794"/>
<path transform="translate(463,498)" d="m0 0m-2 1h2l-2 6-2 5-18 12-13 10-13 11-15 14-7 7-7 8-11 12-11 14-2 3-21-1 6-8 12-13 9-10 29-29 8-7 15-12 16-11 15-10 5 1z" fill="#E53958"/>
<path transform="translate(855,504)" d="m0 0 3 1-9 15-1 2 3 1-10 4-19 10-27 13-26 12-40 18-3-1v-12l18-10 24-11 16-8 27-13 23-11z" fill="#E53958"/>
<path transform="translate(351,437)" d="m0 0h5l-4 4-16 10-12 8-13 9-22 16-11 9-15 13-12 11-8 7-11 11-8 7-12 13-11 12-4 5h-10l-1-3 11-14 9-10 7-8 26-26 8-7 17-14 13-10 18-13 26-15 22-12z" fill="#E43958"/>
<path transform="translate(1179,758)" d="m0 0h2l-1 9-3 6-11 9-14 11-13 10-17 13-18 14-16 12-18 14-14 10-15 11-3 2h-4l-1-7 5-5 14-12 14-11 18-14 13-10 19-14 13-10 38-28 10-8z" fill="#F6F6EB"/>
<path transform="translate(1021,624)" d="m0 0h13l21 3h13l-4-3h17l42 5v1l-11 1 27 6 20 4 2 1v2l-8 4-15 4-3 1-17-3-54-12-32-6-15-3v-4z" fill="#26BAD7"/>
<path transform="translate(284,872)" d="m0 0h2l-2 25-5 5-19 10-19 9-10 5-4-1-10-9-5-5v-3l25-12 42-21z" fill="#0C1B32"/>
<path transform="translate(1185,810)" d="m0 0 1 3-7 7-11 9-10 9-14 11-18 14-19 14-17 12-46 32-11 7-2-1-1-10 14-10 20-14 41-28 17-12 39-26 18-13z" fill="#F8F6EB"/>
<path transform="translate(1271,525)" d="m0 0h2v17l-2 6-9 6-18 14-19 14-16 10h-3l1-1-9-2-13-1 4-4 14-10 16-11 18-13 16-11z" fill="#26BAD7"/>
<path transform="translate(668,456)" d="m0 0 6 1v2l-3 1 10 13 10 14 3 4v4l-5-1-13-6-14-3h-14l-12 2-12 4-13 7h-7l-1 3-5 2v-3l-3 3h-3l2-4 8-7 1-2-2-1 13-8 23-11 24-11z" fill="#E53958"/>
<path transform="translate(558,531)" d="m0 0 4 2-2 3h-2v2h-2l-2 6-4 2-2 4h-2l-2 5-3 1v3h-2l-2 4-6 7-3 6-14 15-7 8-8 8-8 7-12 10-20 12-12 3-3 1h-9v-3h2v-3l2-1h6v-3l5-1 1-2 1 1 1-3h5l1-3 6-2 3-3 5-1-1-3 4-1 1-3 4-2 2-4h2l2-4h2l1-4 5-2v-2h2v-2h2v-2l6-3 11-11h2l3-6 4-6 20-20 7-5 1-2h3v-2z" fill="#F43956"/>
<path transform="translate(1079,750)" d="m0 0 2 1-7 8-14 13-28 22-12 9-18 13-11 8-16 11-3 2h-4l-2-4-4-4 16-13 14-11 17-12 15-10 17-11 17-10 15-8z" fill="#0F728F"/>
<path transform="translate(866,960)" d="m0 0 2 1-2 6-10 7h-2v2h-3v2l-9 6-5 2-5 1-17 8-13 6-23 10-14 5-33 10-23 5-24 4h-51v-1l20-2 36-3 17-4 16-4 18-5 9-3 1-2 10-3 5-2 10-2 1-3 4-2 4-3 21-7 26-12 17-8 16-8z" fill="#25B9D6"/>
<path transform="translate(1271,420)" d="m0 0h1v6l-16 8-15 9-29 16-26 14-23 13-32 17-22 12-26 14-22 12-26 14-19 10-12 7-2 3v-3l-3-1 11-7 16-9h2l1-3 17-9 16-8 5-4 10-5 22-12 17-9 10-6 8-4 10-6 21-11 6-3 3-3 20-10 18-10h2v-2l12-6 16-9 11-7 4-3 10-4z" fill="#27BBD8"/>
<path transform="translate(577,492)" d="m0 0 2 1-10 8-13 10-13 11-3 1-3-9-3-1h-17l-15 3-1-2-19 5-3 2h-8v-5l-2-1 15-8 19-8 13-4 12-2h15l12 3 4 2h6z" fill="#0C1E35"/>
<path transform="translate(179,649)" d="m0 0h7l19 5 21 6 19 4 13 3 11 3 10 2 29 5 36 4 1 2-16 3h-3l3 5 15 13 10 9 13 12 7 5-2 4-5 6-5-4-7-8-9-10-7-8-8-7-7-7-8-7-5-3-41-9-43-11-44-13-4-2z" fill="#FBF7EB"/>
<path transform="translate(954,288)" d="m0 0h33l2 2-5 3-48 22-17 8-12 6-5 1h-10l-19-2-2-2 12-5 32-14 37-17h2z" fill="#0D1A31"/>
<path transform="translate(724,312)" d="m0 0 23 1 18 3 12 4 3 3-3 1-43 2-16 1h-37l-53-3-4-1v-2l10-3h33l40-5z" fill="#FCF8EC"/>
<path transform="translate(765,845)" d="m0 0 2 1-5 5-15 14-44 44-15 20-4 4-11 18-3 6-5-2 1-5 4-1 2-6 2-7 5-10-7 6-3 3-3 1-4 9-7 6-6 8-4 3-1-4 11-13 8-10 15-16 16-17 20-20 11-9 8-7 19-14z" fill="#26BAD7"/>
<path transform="translate(500,513)" d="m0 0h3l-2 4-12 5-17 9-19 13-15 13-10 9-7 7-7 8-9 11-3 5-5 2-2-5v-3h2l1-4 1-2h2l-1-3 8-7 7-7h2l2-4 6-7 2-1 1-4-4 1-2 4h-2v2h-2l-2 4h-2l-2 4-6 1 6-8 15-14 10-9 12-9 18-12h4l1 3-1 2 10-2 4-2 9-2z" fill="#060C1A"/>
<path transform="translate(1035,287)" d="m0 0h6l-1 3-9 6-16 8-35 17-33 15-2 1h-8l-21-4 1-2 18-7 61-25 9-4 9-2h4v-2l12-2z" fill="#0D1B32"/>
<path transform="translate(416,726)" d="m0 0h2l-1 4-10 9-8 7-10 14-8 10-8 11-11 17-11 23-9 25-6 23-4 13-3 3-2-1 1-13 6-25 8-27 7-17 8-16 12-18 9-11 14-14 13-10z" fill="#F4F6EB"/>
<path transform="translate(561,586)" d="m0 0h3l-4 16-5 6-69 46-14 9-18 11h-3l1-5 5-5 13-10 20-15 14-10 19-14 14-10 15-12z" fill="#E43958"/>
<path transform="translate(649,518)" d="m0 0h5l5 6 4 3-1 3-12 5-11 8-9 9-10 15-9 19-5 13-3 3-9 1-1-4 11-29 10-19 9-12 12-12z" fill="#FBF7EB"/>
<path transform="translate(1271,365)" d="m0 0h3v18l-1 8-27 14-5 3h-2v-2l-10 2-9 2-3 1-7 1-1-3h2v-2h2v-2h2v-2h3v-2l4-1v-2l3-3h2v-2h2v-2l6-3v-3l4-3 27-14z" fill="#117B98"/>
<path transform="translate(1257,315)" d="m0 0h3v2l-11 7-3 1-3 6-19 10-80 40-28 11-10 2 2-4 17-10 23-11 16-9 21-10 42-21 14-6z" fill="#27BBD8"/>
<path transform="translate(942,847)" d="m0 0h12l1 2-10 3-7 3-7 6-10 15-7 17-6 21-4 21-3 21-1 12v61l-2-4-3-11-2-20v-29l2-25 4-24 5-21 9-20 3-6 9-12 8-7z" fill="#2FC4E0"/>
<path transform="translate(1029,917)" d="m0 0 2 1 1 9v2l-10 7-25 16-21 13-15 9-22 12-13 8-10 6-5 1 1-4 18-13 11-7 13-10 12-8 43-29 14-9z" fill="#F03956"/>
<path transform="translate(877,915)" d="m0 0h1l-1 9-5 20-3 18-3-1-10 6-11 5-3-1 14-7v-4h-2l-5-9-4-2-3-3v-2h-3l-3-3-6-1v-2h-6l3-2 32-14z" fill="#0B6784"/>
<path transform="translate(1270,408)" d="m0 0h3l-2 6-7 2-9 6-8 4-6 4h-2v2l-7 3-16 8-15 8-11 6-29 15-18 10-9 6-15 6-7 4-13 7-14 8-19 9-19 10-12 7-16 8-10 6-20 10h-3v2l-13 5-2-1 9-6 31-16 22-12 26-14 28-14 23-13 24-12 22-12 32-17 19-11 14-7 22-12 26-14z" fill="#26BBD7"/>
<path transform="translate(972,592)" d="m0 0h18l44 3 40 4 53 6 21 1 8 2 11 1 2 1-2 4-5 4-15-1-7-1-7-2-32-4-34-5-74-8-15-2-6-2z" fill="#2FC4E0"/>
<path transform="translate(586,694)" d="m0 0h3l-1 5-1-3-52 14-27 7-21 7-23 11-11 7-11 8-9 7-7 2-2-2v-3l6-1v-2l5-1 2-4 9-7 6-5 11-6 16-8 17-6 10-4 11-4h2v-2l9-2 1-3h-8v-1l17-2 15-1z" fill="#27BBD8"/>
<path transform="translate(866,981)" d="m0 0h2l1 11-20 12-7 3-21 13-7 4-7 5-12 6-8 6-11 5-6-1-5-2 2-4h4v-2l6-3 6-4 14-8 8-5 9-5 12-7 4-1v-2l6-3 9-6z" fill="#25B8D4"/>
<path transform="translate(542,1039)" d="m0 0h2l6 12 3 8 2 3v3l3 1 1 7 4 2 5 5 4 6 3-1 2-2 8 18 9 17 8 7 6 8 1 2 3 1v2l-16-1-9-2-6-5-2-6h-2l-3-6v-5h-2l-7-20-13-31v-2h-2l-5-13z" fill="#24B7D4"/>
<path transform="translate(439,356)" d="m0 0h6l-2 7-8 13h-2l-2 4-10 8-11 10-4 1-3-8-5-15 1-5 5-5 10-5 11-3z" fill="#0D1D35"/>
<path transform="translate(151,634)" d="m0 0h3l4 6 5 3 13 4 3 2v2l10 3 24 7v3h2l1 5h-3l-5-1-6-3-4 1-9-3-5-2-4 1-2-1-1 3-7-2h-10l28 10-3 1-29-10-7 1-14 7-7 2 1-5 17-14 4-4 1-7z" fill="#E53958"/>
<path transform="translate(961,606)" d="m0 0 21 3 29 5-2 2-21 6-19 6-9 3-7 1-26-3v-1l6-2 7-7 17-10 4-1z" fill="#31C7E2"/>
<path transform="translate(552,632)" d="m0 0h3v9l-3 5-11 8-16 10-14 9-13 8-12 5-16 4h-6l4-4 26-16 33-22 14-9z" fill="#E43958"/>
<path transform="translate(1042,229)" d="m0 0 9 1 9 2 1 3-24 10-19 9-21 9h-5v-3l-3-1 7-3-3 1-10 2-4 2-6 2-1 2-6 1-1 2-12 3-11 5-8 3-12 5-5 1v-2l26-11 36-16 26-11 25-11z" fill="#E73958"/>
<path transform="translate(869,1011)" d="m0 0h2l3 10-1 4-16 8-17 9-23 11-15 7h-6l-5-3-2-1 1-3 15-7h2v-2l21-10h2v-2l9-4 24-13z" fill="#30C6E1"/>
<path transform="translate(431,496)" d="m0 0 4 1-16 12-17 12-10 8-11 9-14 12-10 9-8 7-10 9-7 5-9 1 6-7 8-7 4-5 8-7 9-9 8-7 12-11 11-9 15-12 14-10h3l-1 5 2 1v-3h2v-2h4z" fill="#E93958"/>
<path transform="translate(245,585)" d="m0 0h13l58 10 17 3 1 5-5 4h-13l-35-5-24-5-21-4v-2l-2-1 6-2h3z" fill="#071221"/>
<path transform="translate(1253,340)" d="m0 0 5 3 7 8-3 3-29 15-12 7h-2v-2h-5l-7 2-4-4-2-3-10 4-14 8-6 3h-5l4-3 26-13 46-22z" fill="#13809D"/>
<path transform="translate(222,724)" d="m0 0h6l8 3 9 2 8 3 19 6 17 4 11 2 12 1 28 1 2 2-1 5-1 1-20 2-29-4-23-6-49-16 1-5z" fill="#F7F6EB"/>
<path transform="translate(991,290)" d="m0 0 2 1-1 1 9 1 17-1-4 2-11 3-19 8-24 10-30 12-13 5-11-1-4-2 6-2 16-7 16-8 24-11 20-9z" fill="#F33956"/>
<path transform="translate(407,942)" d="m0 0 8 1 35 13 41 15 9 2 1 4-7 6-23-8-42-16-21-9-5-2-1-3z" fill="#FAF7EB"/>
<path transform="translate(879,1043)" d="m0 0 3 1 3 8v5h-4v2l-16 7-20 9-13 5-7-1-8-4 1-4 9-2v-2l14-6 10-4h3v-2l12-6 10-4z" fill="#2EC1DD"/>
<path transform="translate(776,585)" d="m0 0h27l25 2v1l-23 5-23 6-13 3-1 2-35-5-2-2 7-4 24-6z" fill="#25B9D6"/>
<path transform="translate(713,337)" d="m0 0h10l-1 7-15 44-11 30-1 2-9 1 1-6 8-25 11-35 6-17z" fill="#F9F7EB"/>
<path transform="translate(1202,292)" d="m0 0h3l4 7 4 4-7 3-64 23-18 6-9 2 4-3 14-8 22-12 28-14z" fill="#F33956"/>
<path transform="translate(1272,571)" d="m0 0h1v22l-11 9-11 8-7 4-9-8-8-5 4-3 14-9 11-7 12-8z" fill="#32C8E3"/>
<path transform="translate(1271,484)" d="m0 0h2v21l-9 7-40 30-36 26-14 10-17 12-4 2-1 2-4-2v-2l-4-1 11-2 9-8h2l1-3 5-3 6-5 5-3 3-1v-2l8-6 5-3 3-1 1-3 8-5 3-1v-2l10-7h2v-2l4-1v-2l4-1v-2l9-6 7-6h2v-2l10-6h2l1-2 3-2 1-8v-4l-6 2v-2z" fill="#27BBD8"/>
<path transform="translate(470,806)" d="m0 0 1 2-3 6-2 21-1 19-2 5-5 1-4-2v-2l-5-1-4-6-1-5v-15l9-9 8-7 7-6z" fill="#0C1B32"/>
<path transform="translate(1016,978)" d="m0 0 2 1-1 3-22 15-23 16-38 26-17 12-18 13-48 32-14 9h-2l2-4 8-6h2v-2l5-3 2 1 1-3h2l2-4 8-5 5-3 4-4 5-2 5-6 9-3 3-3 5-1 5-3h2l1-3 7-4 8-8 5-2 9-9 6-3 7-6 6-3 8-7 7-2 1-3 4-3 7-2 4-4 8-4 1-2h2v-2l9-4 1-2h3l1-2z" fill="#060F1E"/>
<path transform="translate(1271,440)" d="m0 0h2v6l-7 8-4 2-2 4-8 7-13 13-8 7-32 30-8 7-7 7-8 7-14 12-4 1-1-5 2-2h3l2-4 3-2h3v-2l6-5h2l2-4h2l2-4h2l1-3 8-7 8-8 4-5h2l1-3 7-5 3-3 4-2 4-4h2l2-4 7-8 5-4h2l2-4 4-5 8-7v-4z" fill="#26BAD7"/>
<path transform="translate(1057,654)" d="m0 0 18 2 18 4 11 4 7 1-4 3-30 15-5 2-9-17-6-11z" fill="#32C7E2"/>
<path transform="translate(1084,283)" d="m0 0h3v3l-29 14-28 13-29 14-37 16-7-1-1-2 4-2h4v-3l8-3 13-6h4l1-2 16-8 10-4 12-6 9-3 1-2 3 1v-2l9-4 4-2 3-1v-2l9-1h4 2l-1-3 9-1z" fill="#E63958"/>
<path transform="translate(1178,700)" d="m0 0 4 1v3h2v-2h2l-2 5-10 19-15 23-9 11-7 10-10 9-26 15-1-2 17-10 11-7 5-4 7-10 7-18 8-26 3-8 6-2 4-2 1-4z" fill="#0B6783"/>
<path transform="translate(605,599)" d="m0 0 1 2-6 27-2 14-1 22-3 2h-7l-3-2 2-27 4-27 3-8 10-1z" fill="#E43958"/>
<path transform="translate(560,460)" d="m0 0 4 1-12 5-5 1 2 1h5l1 3 3-1h13v1l-28 4-31 9-25 11-25 13-3 1 1-4 4-7 16-8 21-9 13-6 20-7 22-7z" fill="#E53958"/>
<path transform="translate(416,792)" d="m0 0 2 1-6 8-3 7h-2l-2 4-4 5h-2l-2 4-15 16-10 11-8 7-11 12-4 5 8 2-6 2-8 1-1-2-3 2 2-4 11-13 9-11 7-9 3-4h2l2-5 9-9 7-8 14-15 9-5z" fill="#24B7D4"/>
<path transform="translate(351,437)" d="m0 0h5l-4 4-16 10-12 8-13 9-22 16-6 5-5 1-3 2h-3v2l-5 3-1-3-4 1 4-6 12-10 20-14 25-14 20-11z" fill="#EA3957"/>
<path transform="translate(1201,368)" d="m0 0 1 2 2 1v3l5 1 5-2 5 1v3l-21 11h-2v-2l-9 3-12 5-7 2h-8l-3 2-2-2 1-2h-2l-1 2-2-6 13-6 7-1 22-12z" fill="#0C6C89"/>
<path transform="translate(567,911)" d="m0 0h17l-3 1v2l-4 1-3 5h-2v2l-6 3-5 5h-2l-2 4-5 4-1 2h-2v2h-2l-1 3-7 6-4 2v-6l-6 2v-5l5-5 11-13 6-7h2l2-4 4-3z" fill="#0B6986"/>
<path transform="translate(203,477)" d="m0 0h4l-1 7-8 9h-2l-2 4-6 5-7 8-10 11-10 13-6 8-11 17-3 2v-6l11-20 10-15 11-14 11-12 9-9z" fill="#F4F5EB"/>
<path transform="translate(202,474)" d="m0 0 3 1v2l-14 11-14 14-11 14-9 13-9 15-5 8-4-1v-8l11-18 8-11 4-5 5-5 4-8 16-16 9-5z" fill="#070E1E"/>
<path transform="translate(1023,625)" d="m0 0 16 1 18 3 27 6 38 10 11 3 3 3-1 1h-8l-63-14-32-6-12-4v-2z" fill="#FCF8EC"/>
<path transform="translate(645,472)" d="m0 0 13 1 6 3-1 4h-2v2l2 1-21 1-16 5-19 9h-3l-1 3-5 2v-3l-3 3h-3l2-4 8-7 1-2-2-1 13-8 3 1 3-1h4v-2l10-4 4-1z" fill="#F43956"/>
<path transform="translate(311,442)" d="m0 0 3 1-8 5-12 7-9 5-14 9-16 11-14 10-13 10-6 5-5 3-9 9-1-4h2v-3l2-1 1-3 8-6 7-8 4-1v-2l9-6 3-1 1-6 16-9 15-8 28-14z" fill="#F33B57"/>
<path transform="translate(924,761)" d="m0 0h6v2l-35 16-47 20-15 6-11 6h-5l4-4 12-9 12-8 7-5 6 1v2l18-9 13-3 12-4 2-2 7-3 13-5z" fill="#07101F"/>
<path transform="translate(1160,770)" d="m0 0 2 1v2l-18 13-52 39-17 13-16 13-14 11-4 1 1-3 8-6 4-2 2-4 5-5 1-3 5-1v-2l5-2h3l2-4 2-3h2l1-3 9-5 4-5h2l1-3 4-1v-2l7-3 4-3 1-3 5-1 1-2 8-6 5-4 6-3 8-6 4-1 7-6z" fill="#070E1D"/>
<path transform="translate(1069,698)" d="m0 0h14l30 5 9 1v2l-9 3h-3v2l-6 5v5l2 4 1 9-2-3-7-10-4-3h-5l-1-4-8-6-8-5-3-3z" fill="#0B6784"/>
<path transform="translate(490,786)" d="m0 0 2 1-3 5h-2l-2 5-8 13-1 3v14l3 6 4 6-16 15-3 3 1-22 2-22 3-6-2-1 13-12z" fill="#0F7390"/>
<path transform="translate(443,830)" d="m0 0h1l1 14 2 7 4 4 3 2-4 1-12 17-6 9-1-3 1-40-2-1 9-7z" fill="#0F7693"/>
<path transform="translate(483,749)" d="m0 0h2l-2 4-6 5-8 10-12 12-2-3-8 6h-3v2l-4 3-4-2-2-2 3-7 2-4 5-4 16-9 17-8z" fill="#0E708D"/>
<path transform="translate(718,605)" d="m0 0h2l-1 4-12 9-23 15-20 14-17 12-11 8-14 10-12 9-2-1 9-9 14-11 15-12 11-8 20-14 19-12 21-13z" fill="#E5F1EA"/>
<path transform="translate(279,929)" d="m0 0h1l-1 12-4 22-2 2-10-9-14-10v-2l16-8z" fill="#0C1E35"/>
<path transform="translate(586,709)" d="m0 0 4 5v2l5 2 3 1v2l7 1 11 5 18 6 11 3-4 3-16 11-16 12-8 7-1-2-8 2v-2l12-9h2l1-3 6-4 3-3 8-6v-2l3-1v-2l3-2-3-2-12-3-5-1h-5l-2-4h-6l-3-1-3-3v-2l-3-2v-3l-4 1-1 4-5-1v-2l6-4h2z" fill="#24B5D2"/>
<path transform="translate(1105,605)" d="m0 0h22l21 1 8 2 11 1 2 1-2 4-5 4-15-1-7-1-7-2-24-3-9-3 1-2z" fill="#30C6E1"/>
<path transform="translate(1265,530)" d="m0 0 3 3 2 5-8 9-11 7-3 1v2l-8 6-4-1 1 4-6 3-4 3-6-1-1 3h-2l-1 2-3-2 1-3 8-4 5-5 4-3 5-1 2-4 5-5v-3l5-4 13-10z" fill="#32C8E3"/>
<path transform="translate(710,769)" d="m0 0h3v2l-12 7-38 24-14 8-4 2h-7l2-5 7-5v-3-2l13-4 20-9z" fill="#071323"/>
<path transform="translate(1248,503)" d="m0 0 2 1-6 6-5 3-5 4h-2v2l-8 5-6 4-8 6-7 5-1 2-9 5-9 6-7 5-9 5-7 5h-2v2l-7 5-3 3-6 4h-3l2-5 10-8 39-26 28-20 20-14 4-3 4-1z" fill="#26BBD7"/>
<path transform="translate(340,676)" d="m0 0 4 2 1 3h2v2l3 1 3 3 7 2v2l-3 1v3h2v3h2v2h2v4h-5v-2l-5-1v3l-4-2h-4l-1-3-2 1 1 2-5-2-12-11v-3l16-3 2-1z" fill="#E63958"/>
<path transform="translate(510,445)" d="m0 0h10l10 3-3 2-20 9-25 12-20 10-20 12-3 2-3-1 1-4 5-6 3-1 2 1 9-4 4-1 4-3 6-1v-2l7-2 3-3 7-1 2-4 5-4 2-4 4-2 3-3 3-2h10l-6-1z" fill="#E53958"/>
<path transform="translate(293,437)" d="m0 0 2 1-10 5-17 6-5 4-3 3-5 1v2l-10 5-4-2v-2l-9 2-6 3h-2l1-4 16-8 14-6 7-1v-2l20-5 5-1z" fill="#EC3A57"/>
<path transform="translate(866,960)" d="m0 0 2 1-2 6-10 7h-2v2h-3v2l-9 6-5 2-5 1-17 8-13 6-23 10-14 5-33 10-9 1 3-2 25-7 26-9 23-10 24-12 14-8 5-5 7-4h2v-2l13-7z" fill="#30C4DF"/>
<path transform="translate(387,840)" d="m0 0 1 3h-2l-1 4-5 7v3l-8 8-9 6-10 3-5-1 3-5 9-9 7-8 9-8v3l3 1 1-2z" fill="#0B6885"/>
<path transform="translate(1108,860)" d="m0 0h2l-2 4-22 15-32 22-17 12-11 7h-3l2-4 2-3 6-2 6-7 7-1 1-3 7-6h5l1-3 7-6 7-3 5-5 7-2 1-3 4-3 7-3 5-5z" fill="#090F1F"/>
<path transform="translate(762,587)" d="m0 0h7v2l-4 2-2 8 15-1 24-7 12-3h9v1l-27 6-17 5-10 2-1 2-35-5-2-2 7-4z" fill="#31C6E1"/>
<path transform="translate(1029,917)" d="m0 0 2 1 1 9v2l-7 5-7 3-15 9-5 1-3-3-2-1 4-5 23-15z" fill="#F23956"/>
<path transform="translate(627,973)" d="m0 0 2 1-7 6-6 2-8 4-9 2-9 3-16 4-21 7-12 1-5 1-2-4v-5l9 4h7l34-12 41-13zm-95 27 2 1-4 3z" fill="#26BAD7"/>
<path transform="translate(1032,871)" d="m0 0 2 1v7l3 1-10 7-22 14-16 10-8 4-2-1 11-9 16-12 10-9 11-9z" fill="#F03956"/>
<path transform="translate(1021,934)" d="m0 0 2 1-15 10-19 12-26 16-11 6-2-1 14-10 6-9 7-5 6-2v-2l8-4 4-3 3 1 1 1 6-1z" fill="#E43958"/>
<path transform="translate(490,775)" d="m0 0h2l1 3-13 10-11 7-6 5h-2v2l-11 7h-2l-2 4-7 4-10 8h-4v2h-3l1-4 13-10 14-10 14-11 23-15z" fill="#26BBD7"/>
<path transform="translate(879,1043)" d="m0 0 3 1 3 8v5l-2-1 1-3h-3v2l-15 6-11 3-8 4-3-1 1-2h2l1-4 4-4h2v-2l12-6 10-4z" fill="#23B5D2"/>
<path transform="translate(627,448)" d="m0 0h30l-4 3-35 15-11 5h-5l1-4 4-5 5-2 4-1 5-2 2-1 1-2 14-3 3-1h-26v-1z" fill="#E53958"/>
<path transform="translate(813,1021)" d="m0 0m-3 1h3l-2 4-11 7-8 4-5 4-11 5-6-1-5-2 2-4h4v-2l6-3 6-4 1-1h5l2 1h4v-2l4-2h4v-2l4 1v-2z" fill="#2FC2DE"/>
<path transform="translate(869,1011)" d="m0 0h2l3 10-1 4-6 3-5-1-10 4-12 4h-2l2-4v-1l-3-1 26-14z" fill="#25B9D6"/>
<path transform="translate(745,299)" d="m0 0h11l20 4 13 4 10 4v2h6v2h2v3l8 1 2 1v2l-11-2-24-8-8-2v-2l-11-2-15-3-3-2z" fill="#060917"/>
<path transform="translate(904,1056)" d="m0 0m-1 1m-5 1h5l-1 4-45 30-17 11-5 2 2-4 8-6h2v-2l5-3 2 1 1-3h2l2-4 8-5 5-3 4-4 5-2 5-6 9-3z" fill="#080F1E"/>
<path transform="translate(459,460)" d="m0 0 2 1-5 4-2 3-6 1v4l-23 12-18 10-13 8h-3l1-3 6-1v-2l5-5 7-3 5-4 5-1v-2l8-4h2l1-3h3v-2l2-1v-3z" fill="#E63958"/>
<path transform="translate(600,921)" d="m0 0 3 1-2 4-26 24-1 2h-2l-2 4-16 17-9 10-2-2 9-12 3-2 2-4h2l2-4 4-4h2l2-4 5-7 6-5 6-7 4-4h2l2-4z" fill="#0C607C"/>
<path transform="translate(866,981)" d="m0 0h2l1 11-20 12-2-1 3-2h-6l-4 2-2-1v-5l26-15z" fill="#0F7390"/>
<path transform="translate(417,1055)" d="m0 0 5 1 5 2v2l9 1 1 3 6 1-4 3-6 4 1 3-4-1-7-3v-2l-5-2-9-5 1-4z" fill="#2FC1DD"/>
<path transform="translate(1213,305)" d="m0 0 7 1v2l-24 13-21 11h-3l-2-4 9-5 17-10 6-2 1-2z" fill="#070E1D"/>
<path transform="translate(780,794)" d="m0 0h8l4 1v4l-32 16-22 12-7 4-4-1 3-1v-2l16-8 6-4h3v-2h2v-2l7-4h2v-2l14-7 2-3z" fill="#080F1F"/>
<path transform="translate(494,642)" d="m0 0h2v2h-2v2h-2v2l-18 12-5 5-15 9h-3l1-5 5-5 13-10 8-4 6-5 7-1z" fill="#F13956"/>
<path transform="translate(0,1364)" d="m0 0h7l1 26v14h-8z" fill="#306C81"/>
<path transform="translate(780,395)" d="m0 0h3v2l-18 8-30 13-33 14h-2l1-3 5-2 3-3 5-1 16-8 10-4 5-3 4-1 8-4 6-2 5-2h3v-2z" fill="#0C1323"/>
<path transform="translate(524,476)" d="m0 0h11l-3 2-23 7-26 12-22 12h-2l1-4 3-5 7-2 1-2 7-2 3-2 8-1 1-3 9-2 4-4 16-4z" fill="#F43956"/>
<path transform="translate(912,285)" d="m0 0 4 1-2 2-7 3-9 3v2l-6 3-2-1v2l-7 2-3 3-7 3-5 1-3 2-4 2-7 3-6 1-1 2h-2l2 5-5-2-3-3 8-5 37-17 26-11z" fill="#E73958"/>
<path transform="translate(222,478)" d="m0 0h1l-1 7-7 8-11 12-8 6-4 5h-2l-1 3-2-2 3-3 2-5 5-5 7-8h2l1-6-2-1 3-9 3 3 6-2 4-1z" fill="#060A18"/>
<path transform="translate(448,915)" d="m0 0 8 1 36 12 33 10 1 3-3 1-2-1v-2l-16-3-16-2-11-4-15-8-13-5z" fill="#26BAD7"/>
<path transform="translate(848,518)" d="m0 0 1 2-1 2 3 1-10 4-19 10-10 3-8 4h-2v-4l1-3 3-2v2l3-2 2-3 3-1 3 1-1-3 3-1 2 1v-2h2v2l7-1 3-1 4-4 7-4z" fill="#F23956"/>
<path transform="translate(1057,654)" d="m0 0 18 2 15 3v1l-12-1h-12l-2 1 3 6 2 8 3 2 7-1 2-1 2 1 1-3h7l1 2-3 3-15 8-3-1-8-16-6-11z" fill="#25BAD6"/>
<path transform="translate(234,460)" d="m0 0h7l3 4-4 8-5 4h-4l1 3-4 6-5 4v-4l3-9 1-8h-2l-1-3z" fill="#F43956"/>
<path transform="translate(828,906)" d="m0 0 4 1-15 12-5 3-4 3-15 10-4 2-4 4h-3v2l-13 8-4 2-4-1 11-8 27-18 28-19z" fill="#27BBD8"/>
<path transform="translate(852,349)" d="m0 0h3l5 5 11 5 4 2-8 2-16 5-11 1 4-3 5-7z" fill="#E43958"/>
<path transform="translate(375,838)" d="m0 0 2 1-9 10-3 5-12 13-4 5 8 2-6 2-8 1-1-2-3 2 2-4 11-13 9-11 4-5 6-4z" fill="#2EC2DE"/>
<path transform="translate(899,785)" d="m0 0 5 1v2l-6 5-8 4-11 10-8 10h-2l-2 4h-2l-2 5-2 3h-2l-1 3-2-4 9-12 12-13 10-9z" fill="#26BBD7"/>
<path transform="translate(1109,552)" d="m0 0 3 1h-2v2l-18 12-16 12h-11l-2-2 12-6 13-8 12-7z" fill="#FCF8EC"/>
<path transform="translate(281,535)" d="m0 0h5l-2 4-35 35h-2l2-6 3-1v-2l5-5 4-7 6-5 3-5 8-7z" fill="#061020"/>
<path transform="translate(1069,698)" d="m0 0h14l30 5 9 1v2h-16l-16 1-16-3-5-4z" fill="#0B5671"/>
<path transform="translate(340,599)" d="m0 0 18 1 3 2-9 10-8-1-10-2-1-3 5-6z" fill="#101E35"/>
<path transform="translate(1183,840)" d="m0 0 1 3-3 5-7 5-5 3-7 8-22 16-8 4 2-4 11-10 11-8h2v-2l10-7h2v-2l5-2 2-4z" fill="#0C6481"/>
<path transform="translate(831,993)" d="m0 0h5l-1 5-4 3-1 3-4 2-9 2-8 5h-8l1-4h3v-2l5-2 7-3 2-4 4-1z" fill="#060A17"/>
<path transform="translate(490,786)" d="m0 0 2 1-3 5h-2l-2 5-8 13-1 3-1 14h-1l-3-9-1 2h-2v5h-1v-12l3-6-2-1 13-12z" fill="#095672"/>
<path transform="translate(1204,720)" d="m0 0h2l-5 29-4 21-3 3-1-7 2-20 4-14z" fill="#0C6783"/>
<path transform="translate(1257,315)" d="m0 0h3v2l-11 7-3 1-3 3v-3l-15 7-10 4-19 10-19 9-22 11-3-1 15-8 23-11 34-17 14-6z" fill="#32C8E3"/>
<path transform="translate(253,585)" d="m0 0 11 1 52 9 17 3 1 5h-3v-3l-8-1h-13l-6-2v-2l-20-1-4-2-6-1-16-1-3-2z" fill="#152B44"/>
<path transform="translate(521,1016)" d="m0 0 1 3 6 1 25 9 15 7 6 1v1h-8l-1 5-3-4-6-2-6-4-8-3-25-9 4-1z" fill="#24B8D5"/>
<path transform="translate(1067,270)" d="m0 0h5l-4 3-12 6-4 1v2h-2l1 3-7 5-1 2-16 8-3 2h-5l4-3 11-6 4-3h2v-2l-7 1-6 2h-5l3-2 15-6z" fill="#E63958"/>
<path transform="translate(1136,607)" d="m0 0h11l6 3 7 2-1 5h-12l-7-1-14-4 3-3z" fill="#F0F4EB"/>
<path transform="translate(298,470)" d="m0 0h2l-2 5-11 8-12 9h-3v2l-5 3-1-3-4 1 5-5 5-4h2v-2l10-7 11-5z" fill="#F43956"/>
<path transform="translate(596,1120)" d="m0 0 6 5 6 8 1 2 3 1v2l-16-1-9-2-4-6 4-2 2 1v-2l5 2h3l2 1v-3l-3-4z" fill="#13809D"/>
<path transform="translate(461,601)" d="m0 0h2v2l-11 8-8 2-5 2h-6v3l-14 2-5-1 2-2h7l3-5 19-5z" fill="#081727"/>
<path transform="translate(393,774)" d="m0 0 3 1-1 4-7 8-13 18-7 11-4 7-1-3 8-17 8-12 11-14z" fill="#E7F2EA"/>
<path transform="translate(910,903)" d="m0 0 1 4-6 29-4 36v38l2 30-3-1-3-13 1-4 1 3v-57l3-27 4-22z" fill="#0C6884"/>
<path transform="translate(1e3 294)" d="m0 0h7v1l-10 3-16 7-24 10-30 12-13 5h-6v-2l16-4 11-5 24-10 13-5 9-4 7-4z" fill="#E43958"/>
<path transform="translate(1103,531)" d="m0 0h2l-2 4-12 6-22 12-21 11-4 2-3-1 6-5 16-8 25-13z" fill="#27BBD8"/>
<path transform="translate(1162,499)" d="m0 0h2l-2 4-9 6-14 7-5 4-11 4-17 8v-3l27-14 22-12z" fill="#27BBD8"/>
<path transform="translate(449,475)" d="m0 0 3 1-8 5-3 6-4 4v5l-2 1-5 1-4 2v-2h-2v2h-2v3l-4-1h2v-6l13-10 11-8z" fill="#EA3957"/>
<path transform="translate(434,776)" d="m0 0m-1 1m-1 1m-1 1m-2 1 2 1-5 6 4 1-5 6h-2l-2 6-3-1-1 3-5 5-4 5h-2l-2 4-12 12v-3l7-8h2l2-4 4-5 3-3 2-5 8-11z" fill="#0D708D"/>
<path transform="translate(1231,461)" d="m0 0 2 1-5 5-17 10-9 5-17 9-7 1v2l-4 1 1-3 28-15 25-14z" fill="#27BBD8"/>
<path transform="translate(312,690)" d="m0 0h6l15 14 2 3h-23l-19-3-26-6v-1h7l11 3 9 1 5 2 6 1h24l-8-7-8-2z" fill="#E53958"/>
<path transform="translate(311,442)" d="m0 0 3 1-8 5-12 7-9 5-14 9-6 4-2-1 11-8h2v-3l-2-1 14-8 20-9z" fill="#EB3957"/>
<path transform="translate(180,579)" d="m0 0h7l1 2-9 11-7 7-5-1-1-2 6-9 5-6z" fill="#EF3957"/>
<path transform="translate(822,988)" d="m0 0m-1 1m-3 1h3v2l-16 8-12 5-21 9-40 12-9 1 3-2 25-7 26-9 23-10 16-8z" fill="#33C9E4"/>
<path transform="translate(903,855)" d="m0 0v3l-4 6-1-2-8 7-4 2-1 3-9 3-2 4-5 2-7 4-5 1 5-5 15-11 14-9 6-4 5-3z" fill="#27BBD8"/>
<path transform="translate(851,443)" d="m0 0v3l-1 3h-2l-2 4-6 4-8 3-7 2v2h-2l-1 2-2 1v1h-5l-1 2-2-3 19-12 15-9z" fill="#E63958"/>
<path transform="translate(691,868)" d="m0 0 1 2-11 6-14 7-5-1-10 3-7 3h-8l-10 2h-6v-1l15-3 16-4 19-6 15-6z" fill="#157C98"/>
<path transform="translate(395,930)" d="m0 0 2 2-1 2 5 2 9 4 1 2-8 3v2l-10-3-6-4 2-4z" fill="#31C5E0"/>
<path transform="translate(431,496)" d="m0 0 4 1-16 12-9 6-4-1 2-2h4v-2l-4 1 3-5v-4l7-5h3l-1 5 2 1v-3h2v-2h4z" fill="#E73958"/>
<path transform="translate(826,371)" d="m0 0 1 2 9 1v2h-7l-30 14-9 4h-5l3-3 11-6 7-2 3-3 4-1 3-2h3v-2z" fill="#0B1627"/>
<path transform="translate(772,927)" d="m0 0m-1 1m-1 1 1 3-15 11-30 20-3-1 10-8 7-5h2l2-4 4-2h3l2-4 7-4h3l1-3z" fill="#071120"/>
<path transform="translate(500,671)" d="m0 0h4l-1 5-15 8-10 3h-7l2-4 7-3 11-4h2v-2z" fill="#F43956"/>
<path transform="translate(1270,585)" d="m0 0 2 3v6l-18 14-10 6-3-2 1-3h2l1-3 13-7h2v-2l6-2 2-5z" fill="#27BBD8"/>
<path transform="translate(503,560)" d="m0 0h2l-1 4-11 11-8 7-8 6-4-1 3-3h3l1-4 5-5 6-7 6-5h3v-2z" fill="#081323"/>
<path transform="translate(836,864)" d="m0 0h9l3 4-1 7-5 6-8 6-3-1 4-2 2-4 1-1v-9l-1-3h-7l1-2z" fill="#081120"/>
<path transform="translate(870,362)" d="m0 0 4 1-17 9-8 4-7-2-4-4 1-1 20-4z" fill="#FCF8EC"/>
<path transform="translate(586,709)" d="m0 0 4 5v2l5 2 3 1v2l7 1 11 5 10 4v1l-8-1-8-2h-5l-2-4h-6l-3-1-3-3v-2l-3-2v-3l-4 1-1 4-5-1v-2l6-4h2z" fill="#23B3D0"/>
<path transform="translate(1025,241)" d="m0 0 2 1-1 1 2 2 5 1-4 3-23 10-2-1 3-3 6-2-1-2h-4v-2l10-5 1-2h5z" fill="#F43956"/>
<path transform="translate(1143,764)" d="m0 0v3l-5 6-10 7-13 8-2-1 1-4 3-1v-2l12-8 8-5z" fill="#25B9D6"/>
<path transform="translate(411,796)" d="m0 0 2 1-3 3h-2l-2 4-3 5h-2l-2 5-8 9h-2v2l-4-2 1-4 9-9 7-8 5-4z" fill="#2FC2DD"/>
<path transform="translate(431,839)" d="m0 0h4l1 9v5l3 2-1 5h-2v3l2 1 1 4-6 8h-1v-35l-2-1z" fill="#0B6885"/>
<path transform="translate(458,522)" d="m0 0 2 1-4 6-2 4-5 4-2-1-1-3v3l-6 4-7 6h-2l1 4-2 1-4-4 11-10 12-9z" fill="#0F2138"/>
<path transform="translate(674,529)" d="m0 0h8l6 2 5 12v4h2v6l-3-1-3-7-5-5-8-7-2-1z" fill="#F23956"/>
<path transform="translate(1233,726)" d="m0 0h2l3 7v24l-1 9-2 5h-1z" fill="#0C6884"/>
<path transform="translate(667,308)" d="m0 0h5l1 2-11 2-1 4 13 1v1l-7 1h-26l3-3 9-4z" fill="#F33956"/>
<path transform="translate(417,1055)" d="m0 0 5 1 5 2v2l4 1h-2v4l-11 2-9-5 1-4z" fill="#25B9D6"/>
<path transform="translate(150,573)" d="m0 0h7l-2 6-10 12-5 1-1-4 5-8z" fill="#EF3C59"/>
<path transform="translate(632,526)" d="m0 0h3l-2 4-11 11-10 15h-2l1-5 4-8 3-7h2v-2h2v-2l7-5z" fill="#080F1E"/>
<path transform="translate(887,841)" d="m0 0 3 1 1-1 5 1-4 2-12 3-15 2-8 2h-7l1-5 22-2 7-2z" fill="#25B9D6"/>
<path transform="translate(1141,638)" d="m0 0 18 3 2 1v2l-8 4-15 4-3 1-2-5 12-1 1-1-5-5z" fill="#32C8E3"/>
<path transform="translate(1065,244)" d="m0 0 3 1-4 2-1 3-10 3-9 4-9 5-7 2-1 2-13 4-5 2-3-1 29-13 12-6z" fill="#F53A56"/>
<path transform="translate(766,467)" d="m0 0 1 2-26 14h-2v2l-23 11-3-1 10-7 5-1v-2l28-13z" fill="#22B0CD"/>
<path transform="translate(559,500)" d="m0 0 3 1-2 7-14 11-4 4h-2l-1-10 10-3 1-2 7-4h2z" fill="#0A0E1D"/>
<path transform="translate(890,380)" d="m0 0 1 4-2 4h-2l-2 5-1 3-5 3h-2l-1-7 1-5 2-3h4v-2z" fill="#E43958"/>
<path transform="translate(559,588)" d="m0 0h3l-3 9-4 2h-3l-1 4 2 4-5 2-3-3 2-4-5 3h-2l2-4 14-11z" fill="#F13956"/>
<path transform="translate(254,441)" d="m0 0h3l1 3-4 3-5 1v2l-2 1h-8l-8 4-4-1v2h-3v-2l6-2 3-3 9-4 9-3z" fill="#060816"/>
<path transform="translate(818,1039)" d="m0 0 2 1-3 1v5h-3v2l-7 2-1 3-7 3h-2l-1-2-4-2 13-6h2v-2z" fill="#24B5D2"/>
<path transform="translate(1072,493)" d="m0 0h3v2l-34 18-16 8h-2l1-3 14-7 14-8 18-8z" fill="#071323"/>
<path transform="translate(1041,716)" d="m0 0h5l-1 3-6 4-7 2v2l-4 2h-3l-4 4-3-1-1 3h-6l1-3 19-10z" fill="#28BDD9"/>
<path transform="translate(262,445)" d="m0 0 4 1-18 8-22 11h-2l1-4 16-8 14-6z" fill="#EAF2EA"/>
<path transform="translate(1057,654)" d="m0 0 18 2 15 3v1l-12-1h-12l-2 1 3 6 1 8-4-4-7-13z" fill="#24B7D4"/>
<path transform="translate(1189,356)" d="m0 0 3 1-48 24-20 8h-2v-2l26-11 10-5 23-11z" fill="#33C9E4"/>
<path transform="translate(1175,644)" d="m0 0 2 1-1 1-2 17-1 5h-1l1-16-8 3-11 1 1-3z" fill="#26BAD7"/>
<path transform="translate(1085,626)" d="m0 0h12l26 3v1l-11 1 9 2 1 2-15-2-21-5z" fill="#30C6E1"/>
<path transform="translate(1115,296)" d="m0 0 3 1-38 19-10 4-9 4h-2v-2l29-13 16-8z" fill="#EB3957"/>
<path transform="translate(319,516)" d="m0 0 4 2v3l3 1-11 7-5 2h-4l1-4 5-5z" fill="#070A19"/>
<path transform="translate(973,297)" d="m0 0 3 1-8 4-20 9-12 6-13 6-8 3-3-1 13-6 32-15z" fill="#E43959"/>
<path transform="translate(711,837)" d="m0 0m-1 1m-4 1h4v3l-31 16h-2l2-5 12-6 10-4h2v-2z" fill="#071323"/>
<path transform="translate(144,656)" d="m0 0 3 1-2 7-6 3-5 5-6 1 1-5z" fill="#F03956"/>
<path transform="translate(1128,606)" d="m0 0h20l8 2 11 1 2 1-2 4-5 4h-5l2-3v-2l-11-4-1-1-19-1z" fill="#2CBFDB"/>
<path transform="translate(664,936)" d="m0 0 1 3-3 6-7 6-6 8-4 3-1-4 11-13 4-5z" fill="#26BAD7"/>
<path transform="translate(336,684)" d="m0 0h5l-1 2 4-2 5 1v2h-2v5l4 4-1 3h-2l-2-3h-5l-5-6 2-5z" fill="#F43956"/>
<path transform="translate(1183,840)" d="m0 0 1 3-3 5-7 5-5 3-14 11-1-2 2-3h2v-2l10-7h2v-2l5-2 2-4z" fill="#1EA2BF"/>
<path transform="translate(735,568)" d="m0 0 4 1 1 2 5-1-1 2h-2v2l-13 6h-2l1-9z" fill="#F33956"/>
<path transform="translate(165,541)" d="m0 0 3 1-2 6-6 8-5 3-2-5 3-5h2l2-4 5-2z" fill="#060A18"/>
<path transform="translate(1016,978)" d="m0 0 2 1-1 3-22 15-7 5h-2l2-4 8-6 3-3h2v-2l9-4 1-2h3l1-2z" fill="#071425"/>
<path transform="translate(1015,343)" d="m0 0 4 1-9 4-20 10-1 2h-5l-1 5-3-1-1-4 16-8z" fill="#E73958"/>
<path transform="translate(425,808)" d="m0 0 4 1-3 4h-2l-2 4-8 7-9 9h-2l1-5 11-9 2-4z" fill="#0C243C"/>
<path transform="translate(306,632)" d="m0 0 7 1 5 5 1 4v5l-7-4-1-3-4-2-3-5z" fill="#F53A56"/>
<path transform="translate(1168,317)" d="m0 0 4 1-24 9-30 10-3-1 9-5 11-3 5-1z" fill="#E43959"/>
<path transform="translate(376,788)" d="m0 0 2 3-1 4-6 9-4 1-2-1 3-9 2-4h5z" fill="#060C1B"/>
<path transform="translate(924,761)" d="m0 0h6v2l-26 12h-3l2-4 16-8z" fill="#071222"/>
<path transform="translate(1118,738)" d="m0 0h1l-1 8-7 28-3 8-1 8 1 2-5 1 1-7 6-17z" fill="#25B9D6"/>
<path transform="translate(318,526)" d="m0 0 2 1-8 5-3 1-1 2-15 6-2 4-3 1 1-4 8-7 9-6v2l10-4z" fill="#E43958"/>
<path transform="translate(688,433)" d="m0 0h5v3l-24 9h-5v-2l4-3 13-4 7-1z" fill="#0C1424"/>
<path transform="translate(370,848)" d="m0 0 2 1-9 9-2 6-4 4h-2v4l2 1-8 1-1-2 7-8z" fill="#107794"/>
<path transform="translate(839,336)" d="m0 0 5 3 1 3-7 11h-2l-1 3-3 1-1-4 5-6 2-3z" fill="#060815"/>
<path transform="translate(825,349)" d="m0 0h6l-4 8-5 4-4-1 2-10z" fill="#F33956"/>
<path transform="translate(1055,692)" d="m0 0m-1 1 1 3-13 8-19 11-4-1 27-16z" fill="#07182A"/>
<path transform="translate(1147,759)" d="m0 0 1 3-5 8-10 9-26 15-1-2 17-10 11-7 5-4 7-10z" fill="#0C6885"/>
<path transform="translate(6,1388)" d="m0 0 2 2v14h-6l-1-13 5-1z" fill="#0C253C"/>
<path transform="translate(932,1036)" d="m0 0m-1 1m-1 1 1 3-18 13-9 6v-3l4-3h2l1-3 7-4 8-8z" fill="#071121"/>
<path transform="translate(898,971)" d="m0 0h1l1 42v16l-2-4-3-11v-5l2 4z" fill="#25B9D6"/>
<path transform="translate(903,855)" d="m0 0v3l-4 6-1-2-8 7-4 2-1 3-6-1 1-3 11-7 6-4 5-3z" fill="#27B9D6"/>
<path transform="translate(1105,745)" d="m0 0h1v11l-3 7-2 10-2 1-3 8-2 1 3-11z" fill="#0A617D"/>
<path transform="translate(513,588)" d="m0 0 3 1-11 12-15 14-11 9-2-1 3-3h2v-2l9-7 5-5 4-2v-3l3-1 4-4 2-3 2-1z" fill="#E43959"/>
<path transform="translate(284,872)" d="m0 0h2l-1 15-2 2-2-4v-3l-4-2-1-2 4-4z" fill="#091223"/>
<path transform="translate(674,481)" d="m0 0 5 1 2 1v-2h4l4 4 1 6-4-3-8-1-8-3 1-2z" fill="#F43956"/>
<path transform="translate(852,349)" d="m0 0h3l2 6-4 10-6 1 1-6 3-7z" fill="#F13956"/>
<path transform="translate(282,892)" d="m0 0h1v7l-5 4-28 14h-2v-2l22-11h2v-2l6-3 3-1z" fill="#081E31"/>
<path transform="translate(1201,730)" d="m0 0h1l-1 10-4 23-2 3v-12l3-16z" fill="#25B9D6"/>
<path transform="translate(1169,610)" d="m0 0 9 1-1 5-3 2h-12l5-5z" fill="#0A5F7C"/>
<path transform="translate(253,585)" d="m0 0 11 1 22 4v1h-12l-16-1-3-2z" fill="#0D314A"/>
<path transform="translate(1193,802)" d="m0 0h2l1 12v20l-2 2-1-7z" fill="#095571"/>
<path transform="translate(1257,581)" d="m0 0h5l-4 5-10 7-5 2h-3l3-5 13-8z" fill="#26BAD7"/>
<path transform="translate(434,776)" d="m0 0m-1 1m-1 1m-1 1m-2 1 2 1-5 6 4 1-5 6h-2l-2 6-3-1 1-7 3-3 3-5z" fill="#0D6C89"/>
<path transform="translate(439,484)" d="m0 0h3l-2 4-3 3v5l-2 1-5 1-4 2 1-4v-3l5-4 5-1z" fill="#F43956"/>
<path transform="translate(1166,331)" d="m0 0 3 1-1 4-16 8-4-1 2-2 5-2 3-4z" fill="#071525"/>
<path transform="translate(1126,258)" d="m0 0 9 1 2 1v2l-10 5-5 1-1-3 4-2z" fill="#E73958"/>
<path transform="translate(195,497)" d="m0 0 2 2-9 10-5 7-3 2-1 3-5 4 2-7 2-1 1-3 7-6 2-4 1-1z" fill="#060815"/>
<path transform="translate(770,316)" d="m0 0 5 1 11 4 5 1v2l2 1h-16v-4l-9-3z" fill="#F33956"/>
<path transform="translate(908,461)" d="m0 0m-1 1m-4 1h4v3l-23 11-4-1 15-8 4-3 4-1z" fill="#071525"/>
<path transform="translate(244,437)" d="m0 0h5l-5 5-9 3v2h-7l4-5z" fill="#071020"/>
<path transform="translate(1200,884)" d="m0 0 1 3-12 11-7 5-3-1 8-7 3-4h2v-2z" fill="#071222"/>
<path transform="translate(838,1067)" d="m0 0 5 1v2l-7 2v2l-9 3-2 2-3-3 7-4 1-2z" fill="#25B9D6"/>
<path transform="translate(1117,268)" d="m0 0h2v3l-26 12h-3v-2l12-6h4v-2l8-3z" fill="#E83958"/>
<path transform="translate(458,522)" d="m0 0 2 1-4 6-2 4-5 4-2-1v-6l9-7z" fill="#121C33"/>
<path transform="translate(766,467)" d="m0 0 1 2-26 14h-3l1-3 17-8z" fill="#25B9D6"/>
<path transform="translate(968,373)" d="m0 0 3 2 2 8v5l-9 4h-2v-2l4-2 2-6z" fill="#071525"/>
<path transform="translate(1105,605)" d="m0 0 12 1 3 3-1 2-17-2-2-2z" fill="#FCF8EC"/>
<path transform="translate(501,981)" d="m0 0h2v2l10 3 4 1 3 5-5-1-16-6-2-3z" fill="#0A627E"/>
<path transform="translate(786,1032)" d="m0 0h2l-1 5-4-1-1 3-10 2-1-4 6-3h3z" fill="#24B6D3"/>
<path transform="translate(577,492)" d="m0 0 2 1-10 8-7 5-1-4-2-3 8-2z" fill="#422B45"/>
<path transform="translate(874,916)" d="m0 0h3l-2 7-6 1-7-1-3-1z" fill="#107794"/>
<path transform="translate(1021,624)" d="m0 0h13l21 3v2l-24-3h-11v2l6 1v1l-9-1v-4z" fill="#2ABEDB"/>
<path transform="translate(263,457)" d="m0 0 1 2-2 5-6 1-6 6-5 2-2-2 12-9z" fill="#060815"/>
<path transform="translate(347,601)" d="m0 0 8 1 2 2-1 4-7 3-1-4-2-3z" fill="#090B19"/>
<path transform="translate(970,608)" d="m0 0 12 1 13 2-3 2-13 1-3-1v-2l-6-2z" fill="#25B9D6"/>
<path transform="translate(723,418)" d="m0 0m-1 1m-1 1m-4 1h4v3l-19 8h-2l1-3 5-2 3-3 5-1z" fill="#0E1627"/>
<path transform="translate(809,380)" d="m0 0m-1 1m-1 1m-1 1v3l-16 8h-5l3-3 11-6z" fill="#071323"/>
<path transform="translate(1142,457)" d="m0 0h2v2l-22 11-5 1 3-3h2v-2l7-3 9-5z" fill="#0B2941"/>
<path transform="translate(1138,348)" d="m0 0h2l-1 3-23 12h-2v-3l6-3h2l1-2 10-4z" fill="#081C2F"/>
<path transform="translate(805,1113)" d="m0 0h14v3l-7 4-5-1-2-3z" fill="#071424"/>
<path transform="translate(172,550)" d="m0 0 2 2h-2l-2 5-4 7h-7l-2-3 5-1 6-7h2z" fill="#F53A56"/>
<path transform="translate(832,1031)" d="m0 0h2v4l-1 3h-3v2l-6 2-1-3-3-1 8-4h2v-2z" fill="#24B5D2"/>
<path transform="translate(425,548)" d="m0 0 2 1-10 10-1 4h-2l-2 4-6 1 6-8z" fill="#081325"/>
<path transform="translate(905,323)" d="m0 0h7v3l-5 3h-13l4-1 1-3z" fill="#070B1A"/>
<path transform="translate(504,473)" d="m0 0h5v2l-19 9h-4v-2l7-3 8-4z" fill="#060815"/>
<path transform="translate(875,1144)" d="m0 0h2l-2 4-18 14-3-1 7-6 4-3h2l1-3 6-4z" fill="#0B1627"/>
<path transform="translate(431,839)" d="m0 0h4l1 9-1 6h-2v6h-1v-19l-2-1z" fill="#0A617E"/>
<path transform="translate(483,749)" d="m0 0h2l-2 4-7 6h-6l1-4z" fill="#106E8A"/>
<path transform="translate(1196,368)" d="m0 0 3 1-19 10-9 5h-5l4-3z" fill="#22A8C4"/>
<path transform="translate(1258,350)" d="m0 0 4 1v3l-10 5h-5l4-5h3v-2z" fill="#117895"/>
<path transform="translate(615,1089)" d="m0 0 11 7 4 4-5-1-2-1 4 5-1 2-8-9-3-5z" fill="#095C79"/>
<path transform="translate(940,619)" d="m0 0h5l-1 4-5 3-2 3h-10v-1l6-2z" fill="#29BEDA"/>
<path transform="translate(186,504)" d="m0 0 1 4-4 2-2 4h-2l-1 4-6 4-2 1 2-4 12-13z" fill="#0C2B43"/>
<path transform="translate(639,1136)" d="m0 0h5l2 4h-17l-3-2 5-1z" fill="#060917"/>
<path transform="translate(900,1017)" d="m0 0h1l2 21v2l-3-1-3-13 1-4 1 3z" fill="#0D6986"/>
<path transform="translate(642,884)" d="m0 0h10l-1 2-7 2h-7l-10 2h-6v-1l15-3z" fill="#12738F"/>
<path transform="translate(483,838)" d="m0 0 2 1-21 21-2-1 11-12z" fill="#27BAD7"/>
<path transform="translate(748,817)" d="m0 0m-1 1m-1 1m-2 1h2v3l-15 8-4-1 3-1v-2z" fill="#071526"/>
<path transform="translate(839,493)" d="m0 0h6v2l-18 9-4-1 7-4h2l1-2 5-2z" fill="#071829"/>
<path transform="translate(422,787)" d="m0 0v3l-3 5-2 7-3 3h-3l1-5 8-11z" fill="#117A97"/>
<path transform="translate(503,471)" d="m0 0 3 1-6 5-7 3-4 2h-3l1-3z" fill="#0D2840"/>
<path transform="translate(1046,465)" d="m0 0h2v2l-20 11-4-1 8-5z" fill="#071526"/>
<path transform="translate(935,449)" d="m0 0h3v2l-21 10-4-1 5-3 7-3z" fill="#071728"/>
<path transform="translate(1084,283)" d="m0 0h3v3l-15 7h-2l1-6 9-1z" fill="#E93958"/>
<path transform="translate(1257,631)" d="m0 0h3l-2 5-6 4h-3l-1-5 7-3z" fill="#30C6E1"/>
<path transform="translate(692,561)" d="m0 0h2l1 6v21l-2-3z" fill="#070C1B"/>
<path transform="translate(261,473)" d="m0 0 2 1-15 11-8 6-2-1 4-4v-2l7-3z" fill="#E43959"/>
<path transform="translate(211,833)" d="m0 0h3v2l-20 10-4-1 16-8z" fill="#081C2E"/>
<path transform="translate(865,367)" d="m0 0 4 1-14 7-2 4 2 4-5-4-1-4z" fill="#E73958"/>
<path transform="translate(799,1020)" d="m0 0 2 1-5 6-1 3-7 1-1-3 11-7z" fill="#26B5D2"/>
<path transform="translate(204,787)" d="m0 0m-3 1h3v3l-13 6-4-1 3-3 9-4z" fill="#070F1E"/>
<path transform="translate(1234,736)" d="m0 0h1l1 22h1v8l-2 5h-1z" fill="#095571"/>
<path transform="translate(1024,726)" d="m0 0 2 1-2 4-4 2-2-1-1 3h-6l1-3z" fill="#27BCD8"/>
<path transform="translate(1121,671)" d="m0 0 2 1-4 4-10 4-4 1 2-4 10-5z" fill="#26BAD7"/>
<path transform="translate(180,579)" d="m0 0h7l1 2-9 11-4 3 2-4 3-7h3v-3z" fill="#E43959"/>
<path transform="translate(781,520)" d="m0 0h6v3l-11 5h-5l2-4 5-1z" fill="#071221"/>
<path transform="translate(822,329)" d="m0 0 16 8v5l-3 1v-2h-2l-4-6-7-3z" fill="#F43956"/>
<path transform="translate(939,274)" d="m0 0 2 1-8 5-6 2-10 3v-2z" fill="#EA3957"/>
<path transform="translate(1272,571)" d="m0 0h1l-1 8-8 2-3-2z" fill="#26BAD7"/>
<path transform="translate(802,511)" d="m0 0h4v3l-13 6-4-1 5-2 1-2 4-1z" fill="#071627"/>
<path transform="translate(765,845)" d="m0 0 2 1-2 3-7 3-12 7-2 1 1-3 14-9z" fill="#31C7E2"/>
<path transform="translate(1068,696)" d="m0 0 8 1v1h-7v2l3 1v2l5 2 6 5h-3l-9-6-4-2z" fill="#21A8C4"/>
<path transform="translate(559,588)" d="m0 0h3l-3 9-4 2h-4l1-4 4-3h2z" fill="#F43956"/>
<path transform="translate(913,890)" d="m0 0 1 3-6 21h-1l-1-6 3-7 1-7z" fill="#25B9D6"/>
<path transform="translate(490,786)" d="m0 0 2 1-3 5h-2l-1 3-6 5-3-1 6-7z" fill="#0C6885"/>
<path transform="translate(1067,270)" d="m0 0h5l-4 3-12 6-4 1v-3z" fill="#EA3957"/>
<path transform="translate(545,1150)" d="m0 0 21 9 1 2-6-1-16-7z" fill="#08192B"/>
<path transform="translate(1079,564)" d="m0 0h5l-5 5-11 5-2-1 5-4z" fill="#26BBD7"/>
<path transform="translate(1014,562)" d="m0 0m-3 1 5 1-4 3-8 5-2 3v-3l-3-1 11-7z" fill="#25B6D3"/>
<path transform="translate(438,874)" d="m0 0h3l-2 6h-2l-2 5h-2l-1 2 1-7z" fill="#2EC4DF"/>
<path transform="translate(347,870)" d="m0 0h2v3h8l-3 2-11 2-1-2-3 2 2-4 5-2z" fill="#25B8D5"/>
<path transform="translate(1093,684)" d="m0 0h6l-2 3-6 3v1h-7l1-3z" fill="#26BBD7"/>
<path transform="translate(972,592)" d="m0 0h18l-4 2 6 1v1h-9l-10-2z" fill="#25B9D6"/>
<path transform="translate(311,442)" d="m0 0 3 1-8 5-5 3h-2v-4z" fill="#E73958"/>
<path transform="translate(1204,720)" d="m0 0h2l-2 13h-3l-2 5-1-4z" fill="#0C6480"/>
<path transform="translate(1128,653)" d="m0 0h5v2l-12 6-4-1 4-4 6-1z" fill="#081728"/>
<path transform="translate(239,450)" d="m0 0 6 1-4 3-9 4-3-1 4-4z" fill="#0C243C"/>
<path transform="translate(1068,682)" d="m0 0h2v2l2 1-10 7-4 1 1-3 3-2h3l1-4z" fill="#081729"/>
<path transform="translate(424,493)" d="m0 0 3 1 2 3-5 1v2h-2v3l-4-1h2v-6z" fill="#ED3957"/>
<path transform="translate(220,466)" d="m0 0h2l1 2v9l-7-7v-2z" fill="#060815"/>
<path transform="translate(446,611)" d="m0 0 4 1-17 8-2-1 2-4 10-2z" fill="#11273F"/>
<path transform="translate(1e3 613)" d="m0 0 10 1-2 2-17 5-4-1 15-5z" fill="#25B9D6"/>
<path transform="translate(1149,280)" d="m0 0 4 1-4 3-6 2-10 3 3-3z" fill="#E83958"/>
<path transform="translate(990,278)" d="m0 0 2 1-6 3-1 3-2 1h-8l3-3z" fill="#F53A56"/>
<path transform="translate(990,905)" d="m0 0 4 2-3 3-10 5-2-1z" fill="#E43958"/>
<path transform="translate(443,830)" d="m0 0h1l1 14 2 7 4 5h-5l-3-9z" fill="#095E7A"/>
<path transform="translate(283,591)" d="m0 0h9l6 1v2h-14l-4-2z" fill="#12273F"/>
<path transform="translate(408,504)" d="m0 0 4 2v2l-2 2h2v2l-5 2-4 2 1-5 4-4z" fill="#F53A56"/>
<path transform="translate(1017,302)" d="m0 0 2 1-3 3-8 3-10 5-3-1z" fill="#E43959"/>
<path transform="translate(572,1119)" d="m0 0h2l2 5 2 3-5-1-6-3v-2z" fill="#071121"/>
<path transform="translate(817,998)" d="m0 0h2l-2 5-7 3-5 1v2h-2l1-3 12-7z" fill="#0D2F47"/>
<path transform="translate(804,905)" d="m0 0h3v2l-13 9-3 1 2-4 10-7z" fill="#071728"/>
<path transform="translate(1183,840)" d="m0 0 1 3-3 5-5 4-2-1 3-3v-3z" fill="#0E6B88"/>
<path transform="translate(143,812)" d="m0 0h11l-1 3-5 3-4-1z" fill="#071425"/>
<path transform="translate(187,795)" d="m0 0m-1 1 3 2-15 7-3-1 4-3 7-3z" fill="#081729"/>
<path transform="translate(540,789)" d="m0 0 2 1-3 2zm-3 3 2 1-5 6-5 3-5 2 5-5z" fill="#22ACC8"/>
<path transform="translate(1039,510)" d="m0 0m-1 1 3 2-16 8h-2l1-3z" fill="#08192B"/>
<path transform="translate(917,993)" d="m0 0 5 2-3 3-4 3h-4l1-4z" fill="#E43959"/>
<path transform="translate(994,940)" d="m0 0 2 1-6 7-7 2-1-2z" fill="#EE3957"/>
<path transform="translate(199,493)" d="m0 0 2 2-3 3-4 1-4 5-2 2-1-4 8-7z" fill="#091A2D"/>
<path transform="translate(297,448)" d="m0 0 3 1-1 3-5 3h-6l2-1 1-3z" fill="#F04862"/>
<path transform="translate(605,1130)" d="m0 0 3 3 1 2 3 2h-7l-11-2v-1l6-1 5 1z" fill="#0B6582"/>
<path transform="translate(300,1020)" d="m0 0 7 6 6 5v2l-4-1-9-9z" fill="#071425"/>
<path transform="translate(786,918)" d="m0 0h2l-2 4-11 7-1-2 3-3h3v-2h2v-2z" fill="#071424"/>
<path transform="translate(442,857)" d="m0 0 4 3-1 5h-3l-1 2-1-5v-3h2z" fill="#0B6986"/>
<path transform="translate(1041,772)" d="m0 0 2 1-3 2 1 2-4 5h-2l-2-5z" fill="#0A6581"/>
<path transform="translate(1031,872)" d="m0 0 1 4-2 3-6 1-4 4-2-1 10-9z" fill="#E43959"/>
<path transform="translate(550,599)" d="m0 0 1 4 2 4-5 2-3-3z" fill="#F43956"/>
<path transform="translate(150,573)" d="m0 0h7l-2 4v-2l-5 2-7 7v-3z" fill="#E63958"/>
<path transform="translate(795,315)" d="m0 0 7 1 15 4v2l-11-2-11-4z" fill="#091224"/>
<path transform="translate(942,847)" d="m0 0h12l1 2-10 3-2-1 2-2z" fill="#1992AF"/>
<path transform="translate(167,805)" d="m0 0h3v2l-14 7h-2l1-3z" fill="#081A2D"/>
<path transform="translate(784,793)" d="m0 0h14v3l-6 2v-3l-8-1z" fill="#0D4761"/>
<path transform="translate(421,640)" d="m0 0h14v2l-5 1h-10l-2-2z" fill="#F53A56"/>
<path transform="translate(805,535)" d="m0 0 1 2h2l2 4-6 3h-2v-4l1-3z" fill="#F53A56"/>
<path transform="translate(1072,493)" d="m0 0h3v2l-16 8 2-4 10-5z" fill="#071829"/>
<path transform="translate(767,494)" d="m0 0h2l1 3-11 5-3-1z" fill="#DF3959"/>
<path transform="translate(1e3 487)" d="m0 0h3v2l-13 7-3-1z" fill="#071627"/>
<path transform="translate(776,461)" d="m0 0 4 1-11 7h-2l-1-3z" fill="#0C6682"/>
<path transform="translate(351,437)" d="m0 0h5l-4 4-7 1-5 1 3-3z" fill="#E43958"/>
<path transform="translate(1192,296)" d="m0 0h3l-1 4 2 1-12 1 4-4z" fill="#E73958"/>
<path transform="translate(995,1049)" d="m0 0h2l-2 4-8 6-1-3h2v-3z" fill="#071324"/>
<path transform="translate(832,989)" d="m0 0 2 1-4 5-9 4-2-2 7-4z" fill="#0F3E57"/>
<path transform="translate(254,942)" d="m0 0 3 1-2 2 3 6-4-2-5-3v-2z" fill="#091628"/>
<path transform="translate(282,892)" d="m0 0h1v7l-5 4-6 2v-3l6-3 3-1z" fill="#071222"/>
<path transform="translate(528,527)" d="m0 0 4 1-1 6-4 1-1-4z" fill="#211224"/>
<path transform="translate(1064,386)" d="m0 0h2l-1 3-10 5h-5l4-3z" fill="#07182A"/>
<path transform="translate(1015,343)" d="m0 0 4 1-9 4-6 3-3-1 2-2z" fill="#E93957"/>
<path transform="translate(1224,630)" d="m0 0 3 3 5 12-2 2-5-12z" fill="#0A5F7B"/>
<path transform="translate(661,515)" d="m0 0 2 2-1 3-7 1-1-4z" fill="#F53A56"/>
<path transform="translate(814,339)" d="m0 0h2v13l-3-1v-8z" fill="#070A19"/>
<path transform="translate(1150,588)" d="m0 0h5v4h-2l-1 2-4-2v-2l-4-1z" fill="#1D9EBB"/>
<path transform="translate(426,549)" d="m0 0 4 2-6 2-2 4h-2v2h-2l-1 2v-3z" fill="#060815"/>
<path transform="translate(380,531)" d="m0 0 2 1-8 8-3 5-3-2z" fill="#E43959"/>
<path transform="translate(624,476)" d="m0 0 3 1-1 2h-2v2l-5 1-2 2-1-2 4-4z" fill="#E83958"/>
<path transform="translate(1257,315)" d="m0 0h3v2l-8 5-4-1 3-3z" fill="#2DC3DE"/>
<path transform="translate(329,1045)" d="m0 0 5 2 10 7-1 2-14-9z" fill="#071627"/>
<path transform="translate(243,917)" d="m0 0h2v2l-14 7-2-2 5-3 8-3z" fill="#081426"/>
<path transform="translate(1052,852)" d="m0 0 1 3-9 8-3-1 4-4z" fill="#0E1425"/>
<path transform="translate(511,629)" d="m0 0 1 2 3 1-5 4-4 1-1-4z" fill="#F43956"/>
<path transform="translate(309,524)" d="m0 0 1 3h6l-1 2-5 2h-4l1-4z" fill="#14253D"/>
<path transform="translate(1122,355)" d="m0 0h3l-1 4-8 4h-2v-3l6-3h2z" fill="#081729"/>
<path transform="translate(839,338)" d="m0 0h1v8l-6 9-3-2 5-6 2-3z" fill="#0D1A31"/>
<path transform="translate(1172,269)" d="m0 0 4 1-7 3h-2v2l-6 1v-2z" fill="#E83958"/>
<path transform="translate(840,1029)" d="m0 0 2 2-4 4-4 1-2-3h2v-2z" fill="#32C7E3"/>
<path transform="translate(512,935)" d="m0 0 9 2 5 2v2l-3 1-2-1v-2l-9-2z" fill="#29BDDA"/>
<path transform="translate(292,793)" d="m0 0h3v2l-13 6-3-1z" fill="#071526"/>
<path transform="translate(234,773)" d="m0 0h2l-1 3-8 4-4-1z" fill="#071324"/>
<path transform="translate(977,748)" d="m0 0 7 2 4 3v2l-4-1-6-1z" fill="#22B2CF"/>
<path transform="translate(823,634)" d="m0 0h2l-1 5-3 5-3-1 3-7z" fill="#071121"/>
<path transform="translate(1169,610)" d="m0 0h5v3l-9 4h-3l6-5z" fill="#0E708C"/>
<path transform="translate(471,587)" d="m0 0 4 2-8 5h-2l2-4z" fill="#0F1729"/>
<path transform="translate(1209,303)" d="m0 0 8 1-2 1-1 2h-3l-7 1z" fill="#131C34"/>
<path transform="translate(830,864)" d="m0 0h6v1l-11 3h-6v-2z" fill="#09293D"/>
<path transform="translate(1160,770)" d="m0 0 2 1v2l-8 6h-2l2-4 4-4z" fill="#071525"/>
<path transform="translate(965,592)" d="m0 0h7l6 2 5 1v1h-8l-9-2z" fill="#0D6986"/>
<path transform="translate(385,525)" d="m0 0h2l-2 6-4 4-2-1 1-2v-3h3z" fill="#F53A56"/>
<path transform="translate(775,489)" d="m0 0 2 1-2 2 2 2-4 2h-4l1-4z" fill="#EA3957"/>
<path transform="translate(684,449)" d="m0 0h3v2l-9 3v2l-3-1 1-3z" fill="#E73958"/>
<path transform="translate(420,1060)" d="m0 0h6l-1 4h-7v-3z" fill="#107794"/>
<path transform="translate(551,973)" d="m0 0v3l-6 7-2-2 6-7z" fill="#0B526E"/>
<path transform="translate(1029,969)" d="m0 0 3 1v2l-6 4h-3l2-4z" fill="#071323"/>
<path transform="translate(997,900)" d="m0 0 2 1-1 2 2 1-4 3h-5l3-5z" fill="#EB3957"/>
<path transform="translate(1175,847)" d="m0 0 3 1-4 5-5 3-4 2 5-7 5-2z" fill="#22B2CF"/>
<path transform="translate(711,837)" d="m0 0m-1 1m-4 1h4v3l-6 3h-2l1-4z" fill="#0E1424"/>
<path transform="translate(298,534)" d="m0 0 2 1-5 6h-2l-2 4-3 1 1-4 8-7z" fill="#EB3957"/>
<path transform="translate(1086,460)" d="m0 0 4 1-4 3-10 4-2-1z" fill="#147995"/>
<path transform="translate(1247,320)" d="m0 0 2 1v3l-3 1-3 3v-3l-2-1z" fill="#33C9E4"/>
<path transform="translate(853,965)" d="m0 0h5l-4 3-9 4-3-1z" fill="#0C6D8A"/>
<path transform="translate(470,817)" d="m0 0 3 2 1 7-2-1v-2l-3 1-1-4h2z" fill="#0B6885"/>
<path transform="translate(827,802)" d="m0 0 2 1-4 5-3 3h-5l4-4z" fill="#092135"/>
<path transform="translate(586,709)" d="m0 0m-2 3 2 1-2 2-1 4-5-1v-2z" fill="#27BBD8"/>
<path transform="translate(557,589)" d="m0 0 2 1-5 5h-2l-2 5-1-2-2-1z" fill="#E43958"/>
<path transform="translate(207,477)" d="m0 0h1v6l-3 7-3 1v-3l4-6z" fill="#0B2A43"/>
<path transform="translate(836,383)" d="m0 0 4 1-1 3h-9l3-3z" fill="#E63958"/>
<path transform="translate(1129,330)" d="m0 0m-5 1h5v2l-11 4-3-1z" fill="#E93958"/>
<path transform="translate(1113,919)" d="m0 0v3l-7 4h-3v-2z" fill="#14627D"/>
<path transform="translate(435,853)" d="m0 0 4 2-1 5-5-2v-4z" fill="#0B6A87"/>
<path transform="translate(345,594)" d="m0 0 4 1v2h4v2h-8l-2-2z" fill="#F53A56"/>
<path transform="translate(503,471)" d="m0 0 3 1-6 5-5-1 4-3z" fill="#0B2D46"/>
<path transform="translate(1072,251)" d="m0 0 3 1-12 6-3-1 4-3z" fill="#F53A56"/>
<path transform="translate(911,1051)" d="m0 0h2l-1 4-9 5 2-4 5-2z" fill="#071728"/>
<path transform="translate(977,744)" d="m0 0h9l7 2-4 2-5-2h-5l-2 1z" fill="#0B607C"/>
<path transform="translate(891,470)" d="m0 0m-1 1 2 2-8 4-4-1z" fill="#071A2C"/>
<path transform="translate(587,411)" d="m0 0 1 4-4 6h-2l1-6 2-2z" fill="#071425"/>
<path transform="translate(1032,294)" d="m0 0m-1 1v3l-7 4h-5l4-3z" fill="#E43959"/>
</svg>
